<svg xmlns="http://www.w3.org/2000/svg" xmlns:xlink="http://www.w3.org/1999/xlink" viewBox="0 0 1200 470" width="1200" height="470" role="img" aria-labelledby="rf-eon-landscape-title rf-eon-landscape-desc" font-family="system-ui, -apple-system, 'Segoe UI', Roboto, 'Helvetica Neue', Arial, sans-serif">
<title id="rf-eon-landscape-title">Adaptive kinetic Monte Carlo</title><desc id="rf-eon-landscape-desc">A two-dimensional model energy landscape with several wells. EON searches found the minima and the saddles between them, and the kinetic Monte Carlo trajectory starts in the shallow well on the left and moves from well to well over the saddles. A chart of the current energy against simulated time on a logarithmic axis shows the descent in microseconds and the long waits in the deepest well.</desc>
<defs><g id="rf-eon-landscape-surface-eon"><rect width="708" height="438" fill="#a8b8cd"/><path d="M286.6 0.0L287.4 -0.0L291.5 -0.0L295.7 -0.0L299.9 -0.0L304.0 -0.0L308.2 -0.0L312.4 -0.0L316.5 -0.0L320.7 -0.0L324.8 -0.0L329.0 -0.0L333.2 -0.0L337.3 -0.0L341.5 -0.0L345.7 -0.0L349.8 -0.0L354.0 -0.0L358.2 -0.0L362.3 -0.0L366.5 -0.0L370.7 -0.0L374.8 -0.0L379.0 -0.0L383.2 -0.0L387.3 -0.0L391.5 -0.0L395.6 -0.0L399.8 -0.0L400.2 0.0L404.0 2.4L406.5 4.2L408.1 5.3L412.2 8.3L412.3 8.4L416.5 11.6L417.6 12.5L420.6 15.0L422.7 16.7L424.8 18.5L427.7 20.9L429.0 21.9L432.8 25.0L433.1 25.3L437.3 28.4L438.4 29.2L441.5 31.2L444.9 33.4L445.6 33.8L449.8 36.0L453.2 37.5L454.0 37.9L458.1 39.5L462.3 40.9L464.9 41.7L466.4 42.1L470.6 43.2L474.8 44.3L478.9 45.4L480.9 45.9L483.1 46.4L487.3 47.4L491.4 48.6L495.6 49.8L496.4 50.1L499.8 51.0L503.9 52.4L508.1 54.0L508.7 54.2L512.3 55.6L516.4 57.3L518.7 58.4L520.6 59.3L524.8 61.3L527.0 62.6L528.9 63.6L533.1 66.0L534.3 66.7L537.2 68.6L540.7 70.9L541.4 71.4L545.6 74.3L546.6 75.1L549.7 77.4L552.0 79.3L553.9 80.7L557.1 83.4L558.1 84.2L562.0 87.6L562.2 87.8L566.4 91.6L566.6 91.8L570.6 95.3L571.3 95.9L574.7 99.0L575.9 100.1L578.9 102.7L580.7 104.3L583.1 106.3L585.7 108.5L587.2 109.7L590.9 112.6L591.4 113.0L595.6 116.0L596.7 116.8L599.7 118.8L602.9 121.0L603.9 121.6L608.0 124.1L609.7 125.1L612.2 126.6L616.4 129.1L616.7 129.3L620.5 131.5L623.9 133.5L624.7 133.9L628.9 136.4L630.9 137.7L633.0 138.9L637.2 141.6L637.5 141.8L641.4 144.3L643.7 146.0L645.5 147.2L649.5 150.2L649.7 150.3L653.9 153.6L654.7 154.3L658.0 157.1L659.6 158.5L662.2 160.9L664.0 162.7L666.4 165.0L668.1 166.9L670.5 169.4L671.9 171.0L674.7 174.3L675.4 175.2L678.6 179.4L678.8 179.7L681.6 183.5L683.0 185.7L684.3 187.7L686.8 191.9L687.2 192.6L689.1 196.1L691.2 200.2L691.3 200.6L693.2 204.4L694.9 208.6L695.5 210.3L696.5 212.7L697.9 216.9L699.1 221.1L699.7 223.2L700.2 225.3L701.2 229.4L702.0 233.6L702.7 237.8L703.2 241.9L703.5 246.1L703.8 250.3L703.8 253.0L703.9 254.5L703.8 258.6L703.8 258.6L703.7 262.8L703.4 267.0L702.9 271.1L702.4 275.3L701.6 279.5L700.7 283.7L699.7 287.8L699.7 287.8L698.5 292.0L697.2 296.2L695.7 300.3L695.5 300.7L694.0 304.5L692.2 308.7L691.3 310.4L690.2 312.9L688.0 317.0L687.2 318.4L685.6 321.2L683.0 325.2L682.9 325.4L680.1 329.5L678.8 331.3L677.0 333.7L674.7 336.6L673.6 337.9L670.5 341.5L670.0 342.1L666.4 345.9L666.0 346.2L662.2 350.0L661.7 350.4L658.0 353.8L657.1 354.6L653.9 357.3L652.0 358.7L649.7 360.5L646.4 362.9L645.5 363.5L641.4 366.4L640.3 367.1L637.2 369.1L633.7 371.3L633.0 371.6L628.9 374.1L626.5 375.4L624.7 376.5L620.5 378.8L619.1 379.6L616.4 381.1L612.2 383.4L611.5 383.8L608.0 385.7L604.1 387.9L603.9 388.1L599.7 390.6L597.3 392.1L595.6 393.3L591.4 396.1L591.1 396.3L587.2 399.1L585.5 400.5L583.1 402.4L580.3 404.6L578.9 405.8L575.4 408.8L574.7 409.4L570.8 413.0L570.6 413.2L566.4 417.0L566.2 417.1L562.2 420.8L561.6 421.3L558.1 424.5L557.0 425.5L553.9 428.2L552.2 429.7L549.7 431.7L547.0 433.8L545.6 435.0L541.6 438.0L541.4 438.0L537.2 438.0L533.1 438.0L528.9 438.0L524.8 438.0L520.6 438.0L516.4 438.0L512.3 438.0L508.1 438.0L503.9 438.0L499.8 438.0L495.6 438.0L491.4 438.0L487.3 438.0L483.1 438.0L478.9 438.0L474.8 438.0L470.6 438.0L466.4 438.0L462.3 438.0L458.1 438.0L454.0 438.0L449.8 438.0L445.6 438.0L441.5 438.0L437.3 438.0L433.1 438.0L429.0 438.0L424.8 438.0L420.6 438.0L416.5 438.0L412.3 438.0L408.1 438.0L404.0 438.0L399.8 438.0L395.6 438.0L391.5 438.0L387.3 438.0L383.2 438.0L379.0 438.0L374.8 438.0L371.7 438.0L370.7 437.4L366.5 434.9L364.8 433.8L362.3 432.4L358.2 430.0L357.4 429.7L354.0 427.9L349.8 426.0L348.3 425.5L345.7 424.5L341.5 423.5L337.3 422.8L333.2 422.6L329.0 422.9L324.8 423.5L320.7 424.5L317.7 425.5L316.5 425.9L312.4 427.5L308.2 429.2L307.2 429.7L304.0 431.1L299.9 433.0L298.0 433.8L295.7 434.9L291.5 436.8L288.6 438.0L287.4 438.0L283.2 438.0L279.0 438.0L274.9 438.0L270.7 438.0L266.5 438.0L262.4 438.0L258.2 438.0L254.0 438.0L249.9 438.0L245.7 438.0L241.6 438.0L237.4 438.0L233.2 438.0L229.1 438.0L224.9 438.0L220.7 438.0L216.6 438.0L212.4 438.0L208.2 438.0L204.1 438.0L199.9 438.0L195.7 438.0L191.6 438.0L187.4 438.0L183.2 438.0L179.1 438.0L174.9 438.0L172.2 438.0L170.8 437.3L166.6 435.0L164.6 433.8L162.4 432.6L158.3 429.8L158.0 429.7L154.1 426.9L152.2 425.5L149.9 423.7L147.1 421.3L145.8 420.2L142.3 417.1L141.6 416.5L138.0 413.0L137.4 412.4L133.9 408.8L133.3 408.1L130.1 404.6L129.1 403.5L126.5 400.5L124.9 398.6L123.0 396.3L120.8 393.5L119.6 392.1L116.6 388.4L116.3 387.9L112.8 383.8L112.4 383.3L109.2 379.6L108.3 378.6L105.4 375.4L104.1 374.1L101.2 371.3L100.0 370.1L96.5 367.1L95.8 366.5L91.6 363.3L91.0 362.9L87.5 360.5L84.8 358.7L83.3 357.8L79.1 355.4L77.8 354.6L75.0 353.0L70.8 350.7L70.3 350.4L66.6 348.4L62.8 346.2L62.5 346.1L58.3 343.7L55.7 342.1L54.1 341.1L50.0 338.4L49.2 337.9L45.8 335.6L43.3 333.7L41.6 332.5L38.1 329.5L37.5 329.1L33.3 325.4L33.3 325.3L29.2 321.3L29.1 321.2L25.3 317.0L25.0 316.7L21.8 312.9L20.8 311.6L18.7 308.7L16.7 305.7L15.8 304.5L13.3 300.3L12.5 298.9L11.0 296.2L9.0 292.0L8.3 290.4L7.3 287.8L5.8 283.7L4.5 279.5L4.2 278.4L3.5 275.3L2.8 271.1L2.2 267.0L1.7 262.8L1.4 258.6L1.2 254.5L1.1 250.3L1.2 246.1L1.5 241.9L1.8 237.8L2.4 233.6L3.0 229.4L3.7 225.3L4.2 223.2L4.8 221.1L6.1 216.9L7.5 212.7L8.3 210.6L9.2 208.6L11.3 204.4L12.5 202.1L13.6 200.2L16.1 196.1L16.7 195.3L19.0 191.9L20.8 189.4L22.2 187.7L25.0 184.3L25.7 183.5L29.2 179.8L29.6 179.4L33.3 175.8L33.9 175.2L37.5 172.1L38.8 171.0L41.6 168.8L44.3 166.9L45.8 165.7L50.0 162.9L50.4 162.7L54.1 160.3L57.3 158.5L58.3 157.9L62.5 155.6L65.0 154.3L66.6 153.5L70.8 151.4L73.3 150.2L75.0 149.3L79.1 147.3L81.8 146.0L83.3 145.2L87.5 143.0L89.7 141.8L91.6 140.7L95.8 138.2L96.6 137.7L100.0 135.4L102.5 133.5L104.1 132.2L107.6 129.3L108.3 128.7L112.1 125.1L112.4 124.8L116.1 121.0L116.6 120.5L119.9 116.8L120.8 115.9L123.6 112.6L124.9 111.1L127.3 108.5L129.1 106.4L130.9 104.3L133.3 101.7L134.7 100.1L137.4 97.2L138.7 95.9L141.6 93.0L142.9 91.8L145.8 89.0L147.3 87.6L149.9 85.3L152.2 83.4L154.1 81.8L157.4 79.3L158.3 78.6L162.4 75.7L163.3 75.1L166.6 72.9L169.8 70.9L170.8 70.4L174.9 68.0L177.3 66.7L179.1 65.8L183.2 63.8L185.9 62.6L187.4 61.9L191.6 60.1L195.7 58.5L196.0 58.4L199.9 56.8L204.1 55.3L207.2 54.2L208.2 53.8L212.4 52.3L216.6 50.7L218.3 50.1L220.7 49.0L224.9 47.2L227.8 45.9L229.1 45.2L233.2 43.0L235.3 41.7L237.4 40.4L241.5 37.5L241.6 37.5L245.7 34.3L246.8 33.4L249.9 30.7L251.6 29.2L254.0 27.0L256.1 25.0L258.2 23.1L260.6 20.9L262.4 19.2L265.1 16.7L266.5 15.4L269.9 12.5L270.7 11.8L274.9 8.4L274.9 8.3L279.0 5.2L280.4 4.2L283.2 2.2Z" fill="#adbcd0" fill-rule="evenodd" stroke="#8598b3" stroke-width="0.6" stroke-opacity="0.55"/><path d="M335.5 0.0L337.3 -0.0L341.5 -0.0L345.7 -0.0L348.9 0.0L349.8 0.1L354.0 0.6L358.2 1.3L362.3 2.2L366.5 3.4L368.8 4.2L370.7 4.8L374.8 6.5L378.8 8.3L379.0 8.4L383.2 10.6L386.4 12.5L387.3 13.1L391.5 15.9L392.6 16.7L395.6 19.0L398.0 20.9L399.8 22.4L402.8 25.0L404.0 26.2L407.2 29.2L408.1 30.2L411.3 33.4L412.3 34.4L415.3 37.5L416.5 38.8L419.4 41.7L420.6 43.0L423.7 45.9L424.8 46.9L428.5 50.1L429.0 50.4L433.1 53.4L434.5 54.2L437.3 55.8L441.5 57.7L443.2 58.4L445.6 59.3L449.8 60.5L454.0 61.5L458.1 62.4L459.1 62.6L462.3 63.1L466.4 63.8L470.6 64.5L474.8 65.2L478.9 66.0L482.7 66.7L483.1 66.8L487.3 67.7L491.4 68.7L495.6 69.9L498.6 70.9L499.8 71.3L503.9 72.7L508.1 74.3L509.8 75.1L512.3 76.1L516.4 78.1L518.6 79.3L520.6 80.3L524.8 82.7L526.0 83.4L528.9 85.2L532.4 87.6L533.1 88.1L537.2 91.1L538.1 91.8L541.4 94.3L543.4 95.9L545.6 97.7L548.3 100.1L549.7 101.4L553.0 104.3L553.9 105.1L557.5 108.5L558.1 109.0L562.0 112.6L562.2 112.8L566.4 116.6L566.6 116.8L570.6 120.2L571.4 121.0L574.7 123.7L576.6 125.1L578.9 126.9L582.2 129.3L583.1 129.9L587.2 132.6L588.6 133.5L591.4 135.1L595.6 137.5L595.8 137.7L599.7 139.7L603.7 141.8L603.9 141.9L608.0 144.0L611.9 146.0L612.2 146.1L616.4 148.2L620.0 150.2L620.5 150.4L624.7 152.7L627.6 154.3L628.9 155.0L633.0 157.5L634.5 158.5L637.2 160.2L640.7 162.7L641.4 163.1L645.5 166.2L646.4 166.9L649.7 169.5L651.4 171.0L653.9 173.2L656.0 175.2L658.0 177.2L660.1 179.4L662.2 181.7L663.8 183.5L666.4 186.6L667.2 187.7L670.3 191.9L670.5 192.2L673.1 196.1L674.7 198.6L675.7 200.2L678.0 204.4L678.8 206.1L680.1 208.6L682.0 212.7L683.0 215.4L683.6 216.9L685.1 221.1L686.4 225.3L687.2 228.3L687.5 229.4L688.5 233.6L689.2 237.8L689.8 241.9L690.3 246.1L690.5 250.3L690.7 254.5L690.6 258.6L690.4 262.8L690.1 267.0L689.6 271.1L688.9 275.3L688.0 279.5L687.2 282.7L687.0 283.7L685.8 287.8L684.4 292.0L683.0 295.6L682.8 296.2L681.1 300.3L679.0 304.5L678.8 304.9L676.9 308.7L674.7 312.4L674.4 312.9L671.7 317.0L670.5 318.8L668.8 321.2L666.4 324.3L665.5 325.4L662.2 329.3L661.9 329.5L658.0 333.7L658.0 333.7L653.9 337.7L653.6 337.9L649.7 341.3L648.8 342.1L645.5 344.7L643.4 346.2L641.4 347.7L637.4 350.4L637.2 350.5L633.0 353.2L630.6 354.6L628.9 355.6L624.7 357.9L623.1 358.7L620.5 360.1L616.4 362.2L614.8 362.9L612.2 364.2L608.0 366.1L606.0 367.1L603.9 368.1L599.7 370.1L597.3 371.3L595.6 372.1L591.4 374.3L589.3 375.4L587.2 376.6L583.1 379.1L582.2 379.6L578.9 381.9L576.2 383.8L574.7 384.8L570.8 387.9L570.6 388.1L566.4 391.6L565.9 392.1L562.2 395.4L561.3 396.3L558.1 399.3L556.9 400.5L553.9 403.3L552.5 404.6L549.7 407.2L548.0 408.8L545.6 411.1L543.4 413.0L541.4 414.7L538.5 417.1L537.2 418.2L533.3 421.3L533.1 421.5L528.9 424.5L527.5 425.5L524.8 427.4L521.0 429.7L520.6 429.9L516.4 432.3L513.5 433.8L512.3 434.5L508.1 436.5L504.4 438.0L503.9 438.0L499.8 438.0L495.6 438.0L491.4 438.0L487.3 438.0L483.1 438.0L478.9 438.0L474.8 438.0L470.6 438.0L466.4 438.0L462.3 438.0L458.1 438.0L454.0 438.0L449.8 438.0L445.6 438.0L441.5 438.0L437.3 438.0L433.1 438.0L429.0 438.0L424.8 438.0L421.5 438.0L420.6 437.7L416.5 435.9L412.3 433.9L412.2 433.8L408.1 431.7L404.6 429.7L404.0 429.3L399.8 426.7L398.0 425.5L395.6 423.9L392.1 421.3L391.5 420.9L387.3 417.7L386.6 417.1L383.2 414.4L381.4 413.0L379.0 411.0L376.4 408.8L374.8 407.5L371.4 404.6L370.7 404.0L366.5 400.7L366.2 400.5L362.3 397.6L360.3 396.3L358.2 394.9L354.0 392.5L353.2 392.1L349.8 390.6L345.7 389.1L341.5 388.1L340.6 387.9L337.3 387.5L333.2 387.5L329.0 387.9L328.8 387.9L324.8 388.8L320.7 390.2L316.5 391.9L316.1 392.1L312.4 394.1L308.6 396.3L308.2 396.5L304.0 399.3L302.3 400.5L299.9 402.1L296.2 404.6L295.7 405.0L291.5 407.9L290.2 408.8L287.4 410.7L283.9 413.0L283.2 413.4L279.0 416.0L277.0 417.1L274.9 418.4L270.7 420.6L269.1 421.3L266.5 422.6L262.4 424.4L259.5 425.5L258.2 426.0L254.0 427.5L249.9 428.7L246.1 429.7L245.7 429.8L241.6 430.7L237.4 431.4L233.2 432.0L229.1 432.3L224.9 432.5L220.7 432.6L216.6 432.4L212.4 432.1L208.2 431.6L204.1 431.0L199.9 430.1L198.1 429.7L195.7 429.1L191.6 427.9L187.4 426.4L185.0 425.5L183.2 424.8L179.1 423.0L175.8 421.3L174.9 420.9L170.8 418.6L168.5 417.1L166.6 416.0L162.4 413.1L162.3 413.0L158.3 409.9L156.9 408.8L154.1 406.5L152.1 404.6L149.9 402.6L147.7 400.5L145.8 398.4L143.8 396.3L141.6 393.8L140.1 392.1L137.4 388.9L136.6 387.9L133.4 383.8L133.3 383.7L130.1 379.6L129.1 378.2L127.0 375.4L124.9 372.8L123.8 371.3L120.8 367.5L120.4 367.1L116.9 362.9L116.6 362.6L112.9 358.7L112.4 358.3L108.3 354.6L108.3 354.6L104.1 351.3L102.8 350.4L100.0 348.5L96.1 346.2L95.8 346.0L91.6 343.8L88.1 342.1L87.5 341.8L83.3 339.8L79.2 337.9L79.1 337.9L75.0 336.0L70.8 334.0L70.3 333.7L66.6 331.9L62.5 329.6L62.3 329.5L58.3 327.3L55.3 325.4L54.1 324.7L50.0 321.8L49.2 321.2L45.8 318.7L43.8 317.0L41.6 315.2L39.2 312.9L37.5 311.2L35.1 308.7L33.3 306.8L31.4 304.5L29.2 301.6L28.2 300.3L25.4 296.2L25.0 295.5L22.9 292.0L20.8 288.1L20.7 287.8L18.7 283.7L17.1 279.5L16.7 278.2L15.7 275.3L14.5 271.1L13.5 267.0L12.8 262.8L12.5 260.0L12.3 258.6L12.0 254.5L11.9 250.3L12.0 246.1L12.3 241.9L12.5 240.8L12.9 237.8L13.6 233.6L14.6 229.4L15.8 225.3L16.7 222.7L17.2 221.1L18.9 216.9L20.8 212.8L20.8 212.7L23.0 208.6L25.0 205.4L25.6 204.4L28.5 200.2L29.2 199.3L31.7 196.1L33.3 194.2L35.4 191.9L37.5 189.7L39.6 187.7L41.6 185.8L44.4 183.5L45.8 182.4L49.8 179.4L50.0 179.3L54.1 176.5L56.2 175.2L58.3 173.9L62.5 171.6L63.7 171.0L66.6 169.5L70.8 167.6L72.5 166.9L75.0 165.7L79.1 164.0L82.5 162.7L83.3 162.3L87.5 160.6L91.6 159.0L92.7 158.5L95.8 157.1L100.0 155.2L101.6 154.3L104.1 153.0L108.3 150.5L108.8 150.2L112.4 147.6L114.6 146.0L116.6 144.3L119.3 141.8L120.8 140.4L123.5 137.7L124.9 136.1L127.2 133.5L129.1 131.3L130.7 129.3L133.3 126.3L134.2 125.1L137.4 121.1L137.6 121.0L141.0 116.8L141.6 116.1L144.6 112.6L145.8 111.4L148.4 108.5L149.9 106.9L152.5 104.3L154.1 102.7L156.9 100.1L158.3 98.9L161.8 95.9L162.4 95.4L166.6 92.3L167.3 91.8L170.8 89.3L173.5 87.6L174.9 86.7L179.1 84.3L180.7 83.4L183.2 82.1L187.4 80.1L189.3 79.3L191.6 78.3L195.7 76.6L199.9 75.1L200.0 75.1L204.1 73.7L208.2 72.4L212.4 71.2L213.5 70.9L216.6 70.0L220.7 68.8L224.9 67.6L227.9 66.7L229.1 66.4L233.2 64.9L237.4 63.3L239.0 62.6L241.6 61.3L245.7 59.1L246.8 58.4L249.9 56.3L252.6 54.2L254.0 53.1L257.4 50.1L258.2 49.3L261.6 45.9L262.4 45.1L265.6 41.7L266.5 40.7L269.4 37.5L270.7 36.2L273.3 33.4L274.9 31.7L277.3 29.2L279.0 27.5L281.7 25.0L283.2 23.6L286.4 20.9L287.4 20.1L291.5 16.9L291.8 16.7L295.7 13.9L298.0 12.5L299.9 11.4L304.0 9.1L305.5 8.3L308.2 7.0L312.4 5.3L315.5 4.2L316.5 3.8L320.7 2.5L324.8 1.5L329.0 0.7L333.2 0.2Z" fill="#b3c1d3" fill-rule="evenodd" stroke="#8598b3" stroke-width="0.6" stroke-opacity="0.55"/><path d="M338.5 12.5L341.5 12.4L345.2 12.5L345.7 12.5L349.8 12.9L354.0 13.5L358.2 14.4L362.3 15.6L365.3 16.7L366.5 17.1L370.7 18.9L374.5 20.9L374.8 21.0L379.0 23.5L381.2 25.0L383.2 26.4L386.8 29.2L387.3 29.7L391.5 33.4L391.5 33.4L395.6 37.5L395.6 37.6L399.4 41.7L399.8 42.2L402.9 45.9L404.0 47.3L406.3 50.1L408.1 52.5L409.6 54.2L412.3 57.6L413.0 58.4L416.5 62.3L416.8 62.6L420.6 66.2L421.4 66.7L424.8 69.2L427.7 70.9L429.0 71.6L433.1 73.2L437.3 74.5L439.9 75.1L441.5 75.4L445.6 76.0L449.8 76.5L454.0 76.9L458.1 77.3L462.3 77.6L466.4 78.0L470.6 78.5L474.8 79.0L476.2 79.3L478.9 79.7L483.1 80.4L487.3 81.3L491.4 82.4L494.9 83.4L495.6 83.6L499.8 85.0L503.9 86.6L506.2 87.6L508.1 88.4L512.3 90.4L514.8 91.8L516.4 92.6L520.6 95.1L521.9 95.9L524.8 97.8L528.0 100.1L528.9 100.8L533.1 104.0L533.5 104.3L537.2 107.4L538.5 108.5L541.4 111.1L543.1 112.6L545.6 114.9L547.6 116.8L549.7 118.9L552.0 121.0L553.9 122.8L556.4 125.1L558.1 126.7L560.9 129.3L562.2 130.5L565.8 133.5L566.4 134.0L570.6 137.2L571.1 137.7L574.7 140.2L577.3 141.8L578.9 142.8L583.1 145.3L584.4 146.0L587.2 147.5L591.4 149.6L592.6 150.2L595.6 151.5L599.7 153.5L601.6 154.3L603.9 155.4L608.0 157.3L610.6 158.5L612.2 159.2L616.4 161.3L619.1 162.7L620.5 163.4L624.7 165.7L626.7 166.9L628.9 168.2L633.0 170.8L633.3 171.0L637.2 173.7L639.2 175.2L641.4 176.8L644.5 179.4L645.5 180.3L649.1 183.5L649.7 184.1L653.2 187.7L653.9 188.4L657.0 191.9L658.0 193.2L660.3 196.1L662.2 198.6L663.3 200.2L666.0 204.4L666.4 205.0L668.4 208.6L670.5 212.6L670.6 212.7L672.5 216.9L674.2 221.1L674.7 222.5L675.7 225.3L676.9 229.4L678.0 233.6L678.8 237.8L678.8 237.9L679.5 241.9L680.0 246.1L680.3 250.3L680.5 254.5L680.4 258.6L680.2 262.8L679.8 267.0L679.2 271.1L678.8 273.0L678.4 275.3L677.5 279.5L676.3 283.7L674.9 287.8L674.7 288.5L673.4 292.0L671.6 296.2L670.5 298.3L669.5 300.3L667.2 304.5L666.4 306.0L664.7 308.7L662.2 312.3L661.8 312.9L658.6 317.0L658.0 317.8L655.1 321.2L653.9 322.6L651.1 325.4L649.7 326.8L646.7 329.5L645.5 330.6L641.7 333.7L641.4 334.0L637.2 337.1L636.1 337.9L633.0 340.0L629.7 342.1L628.9 342.6L624.7 345.0L622.3 346.2L620.5 347.2L616.4 349.3L613.9 350.4L612.2 351.2L608.0 353.1L604.4 354.6L603.9 354.8L599.7 356.6L595.6 358.3L594.5 358.7L591.4 360.1L587.2 362.0L585.3 362.9L583.1 364.0L578.9 366.2L577.3 367.1L574.7 368.6L570.6 371.3L570.6 371.3L566.4 374.4L565.0 375.4L562.2 377.7L560.1 379.6L558.1 381.4L555.5 383.8L553.9 385.3L551.2 387.9L549.7 389.4L547.0 392.1L545.6 393.5L542.8 396.3L541.4 397.6L538.4 400.5L537.2 401.5L533.8 404.6L533.1 405.3L528.9 408.8L528.9 408.8L524.8 412.0L523.4 413.0L520.6 415.0L517.3 417.1L516.4 417.7L512.3 420.2L510.2 421.3L508.1 422.4L503.9 424.4L501.4 425.5L499.8 426.2L495.6 427.7L491.4 429.1L489.2 429.7L487.3 430.2L483.1 431.1L478.9 431.9L474.8 432.4L470.6 432.8L466.4 433.0L462.3 433.0L458.1 432.8L454.0 432.4L449.8 431.9L445.6 431.2L441.5 430.2L439.5 429.7L437.3 429.1L433.1 427.8L429.0 426.2L427.3 425.5L424.8 424.4L420.6 422.5L418.5 421.3L416.5 420.2L412.3 417.8L411.3 417.1L408.1 415.1L405.2 413.0L404.0 412.1L399.8 408.8L399.8 408.8L395.6 405.4L394.8 404.6L391.5 401.7L390.1 400.5L387.3 397.8L385.7 396.3L383.2 393.8L381.4 392.1L379.0 389.8L377.0 387.9L374.8 385.9L372.5 383.8L370.7 382.2L367.5 379.6L366.5 378.8L362.3 375.8L361.7 375.4L358.2 373.3L354.1 371.3L354.0 371.2L349.8 369.6L345.7 368.4L341.5 367.5L338.0 367.1L337.3 367.0L333.2 366.9L330.8 367.1L329.0 367.2L324.8 367.9L320.7 369.0L316.5 370.5L314.9 371.3L312.4 372.5L308.2 374.9L307.4 375.4L304.0 377.7L301.5 379.6L299.9 380.8L296.2 383.8L295.7 384.2L291.5 387.7L291.2 387.9L287.4 391.1L286.2 392.1L283.2 394.5L281.0 396.3L279.0 397.8L275.4 400.5L274.9 400.8L270.7 403.6L269.1 404.6L266.5 406.2L262.4 408.5L261.8 408.8L258.2 410.6L254.0 412.4L252.7 413.0L249.9 414.1L245.7 415.5L241.6 416.6L239.4 417.1L237.4 417.6L233.2 418.4L229.1 418.9L224.9 419.3L220.7 419.4L216.6 419.4L212.4 419.1L208.2 418.7L204.1 418.0L200.2 417.1L199.9 417.1L195.7 416.0L191.6 414.7L187.4 413.1L187.1 413.0L183.2 411.3L179.1 409.2L178.4 408.8L174.9 406.8L171.5 404.6L170.8 404.1L166.6 401.1L165.7 400.5L162.4 397.8L160.8 396.3L158.3 394.0L156.4 392.1L154.1 389.8L152.4 387.9L149.9 385.1L148.8 383.8L145.8 379.9L145.5 379.6L142.4 375.4L141.6 374.3L139.4 371.3L137.4 368.4L136.5 367.1L133.6 362.9L133.3 362.4L130.6 358.7L129.1 356.6L127.5 354.6L124.9 351.4L124.1 350.4L120.8 346.8L120.2 346.2L116.6 343.0L115.4 342.1L112.4 339.9L109.4 337.9L108.3 337.2L104.1 335.0L101.5 333.7L100.0 333.0L95.8 331.3L91.6 329.6L91.6 329.5L87.5 328.0L83.3 326.3L80.9 325.4L79.1 324.7L75.0 322.9L71.3 321.2L70.8 321.0L66.6 318.9L63.3 317.0L62.5 316.6L58.3 314.0L56.6 312.9L54.1 311.1L51.0 308.7L50.0 307.9L46.2 304.5L45.8 304.2L42.0 300.3L41.6 299.9L38.5 296.2L37.5 294.9L35.3 292.0L33.3 288.9L32.7 287.8L30.3 283.7L29.2 281.2L28.4 279.5L26.7 275.3L25.3 271.1L25.0 270.0L24.2 267.0L23.3 262.8L22.7 258.6L22.4 254.5L22.2 250.3L22.4 246.1L22.7 241.9L23.4 237.8L24.2 233.6L25.0 230.8L25.4 229.4L26.8 225.3L28.5 221.1L29.2 219.6L30.5 216.9L32.8 212.7L33.3 212.0L35.5 208.6L37.5 205.9L38.7 204.4L41.6 201.0L42.3 200.2L45.8 196.7L46.5 196.1L50.0 193.1L51.5 191.9L54.1 189.9L57.3 187.7L58.3 187.0L62.5 184.5L64.3 183.5L66.6 182.3L70.8 180.3L73.0 179.4L75.0 178.5L79.1 176.8L83.3 175.3L83.7 175.2L87.5 173.9L91.6 172.5L95.8 171.2L96.2 171.0L100.0 169.7L104.1 168.2L107.4 166.9L108.3 166.5L112.4 164.5L115.7 162.7L116.6 162.1L120.8 159.3L121.7 158.5L124.9 155.8L126.5 154.3L129.1 151.7L130.5 150.2L133.3 146.9L134.0 146.0L137.3 141.8L137.4 141.6L140.3 137.7L141.6 136.0L143.4 133.5L145.8 130.4L146.6 129.3L149.9 125.1L149.9 125.1L153.3 121.0L154.1 120.0L157.0 116.8L158.3 115.4L161.0 112.6L162.4 111.3L165.5 108.5L166.6 107.5L170.5 104.3L170.8 104.1L174.9 101.0L176.3 100.1L179.1 98.3L183.0 95.9L183.2 95.8L187.4 93.6L191.3 91.8L191.6 91.6L195.7 89.9L199.9 88.3L202.1 87.6L204.1 86.9L208.2 85.7L212.4 84.6L216.6 83.6L217.4 83.4L220.7 82.7L224.9 81.8L229.1 80.9L233.2 80.0L236.7 79.3L237.4 79.1L241.6 77.9L245.7 76.6L249.6 75.1L249.9 75.0L254.0 72.8L257.1 70.9L258.2 70.2L262.4 66.8L262.5 66.7L266.5 62.8L266.7 62.6L270.4 58.4L270.7 58.0L273.7 54.2L274.9 52.8L277.0 50.1L279.0 47.6L280.4 45.9L283.2 42.6L283.9 41.7L287.4 37.9L287.7 37.5L291.5 33.7L291.9 33.4L295.7 29.9L296.6 29.2L299.9 26.6L302.1 25.0L304.0 23.8L308.2 21.3L308.9 20.9L312.4 19.1L316.5 17.3L318.2 16.7L320.7 15.8L324.8 14.5L329.0 13.6L333.2 12.9L337.3 12.6Z" fill="#b8c5d6" fill-rule="evenodd" stroke="#8598b3" stroke-width="0.6" stroke-opacity="0.55"/><path d="M329.2 25.0L333.2 24.3L337.3 23.8L341.5 23.6L345.7 23.8L349.8 24.3L353.7 25.0L354.0 25.1L358.2 26.2L362.3 27.7L365.6 29.2L366.5 29.6L370.7 31.9L372.9 33.4L374.8 34.7L378.5 37.5L379.0 37.9L383.1 41.7L383.2 41.8L387.0 45.9L387.3 46.3L390.4 50.1L391.5 51.6L393.4 54.2L395.6 57.7L396.1 58.4L398.8 62.6L399.8 64.3L401.3 66.7L403.9 70.9L404.0 71.0L406.8 75.1L408.1 76.9L410.3 79.3L412.3 81.3L415.1 83.4L416.5 84.4L420.6 86.4L424.6 87.6L424.8 87.7L429.0 88.4L433.1 88.8L437.3 89.0L441.5 89.0L445.6 89.0L449.8 88.9L454.0 88.9L458.1 88.9L462.3 89.0L466.4 89.2L470.6 89.5L474.8 89.9L478.9 90.5L483.1 91.2L485.5 91.8L487.3 92.2L491.4 93.3L495.6 94.6L499.3 95.9L499.8 96.1L503.9 97.9L508.1 99.9L508.6 100.1L512.3 102.1L515.9 104.3L516.4 104.6L520.6 107.4L522.0 108.5L524.8 110.5L527.5 112.6L528.9 113.8L532.4 116.8L533.1 117.5L536.9 121.0L537.2 121.3L541.2 125.1L541.4 125.3L545.4 129.3L545.6 129.5L549.7 133.5L549.7 133.6L553.9 137.5L554.1 137.7L558.1 141.2L558.8 141.8L562.2 144.6L564.1 146.0L566.4 147.6L570.2 150.2L570.6 150.4L574.7 152.8L577.6 154.3L578.9 155.0L583.1 157.0L586.4 158.5L587.2 158.9L591.4 160.6L595.6 162.4L596.3 162.7L599.7 164.1L603.9 165.9L606.1 166.9L608.0 167.7L612.2 169.6L615.1 171.0L616.4 171.7L620.5 173.9L622.9 175.2L624.7 176.2L628.9 178.9L629.6 179.4L633.0 181.7L635.4 183.5L637.2 184.9L640.5 187.7L641.4 188.4L645.0 191.9L645.5 192.4L649.0 196.1L649.7 196.9L652.5 200.2L653.9 202.0L655.6 204.4L658.0 208.0L658.4 208.6L660.9 212.7L662.2 215.3L663.0 216.9L664.9 221.1L666.4 224.7L666.6 225.3L668.0 229.4L669.2 233.6L670.1 237.8L670.5 240.0L670.9 241.9L671.4 246.1L671.8 250.3L671.9 254.5L671.9 258.6L671.6 262.8L671.2 267.0L670.5 271.1L670.5 271.1L669.7 275.3L668.6 279.5L667.3 283.7L666.4 286.2L665.8 287.8L664.0 292.0L662.2 295.7L661.9 296.2L659.6 300.3L658.0 302.9L657.0 304.5L654.1 308.7L653.9 308.9L650.7 312.9L649.7 314.1L647.0 317.0L645.5 318.5L642.7 321.2L641.4 322.4L637.9 325.4L637.2 325.9L633.0 329.1L632.4 329.5L628.9 331.9L625.9 333.7L624.7 334.5L620.5 336.8L618.4 337.9L616.4 339.0L612.2 340.9L609.6 342.1L608.0 342.7L603.9 344.5L599.7 346.1L599.3 346.2L595.6 347.7L591.4 349.3L588.4 350.4L587.2 350.9L583.1 352.6L578.9 354.3L578.3 354.6L574.7 356.3L570.6 358.4L570.0 358.7L566.4 360.9L563.4 362.9L562.2 363.7L558.1 366.9L557.9 367.1L553.9 370.5L553.1 371.3L549.7 374.5L548.8 375.4L545.6 378.7L544.7 379.6L541.4 383.0L540.7 383.8L537.2 387.3L536.6 387.9L533.1 391.5L532.4 392.1L528.9 395.4L528.0 396.3L524.8 399.1L523.2 400.5L520.6 402.6L517.8 404.6L516.4 405.7L512.3 408.5L511.7 408.8L508.1 411.0L504.4 413.0L503.9 413.2L499.8 415.2L495.6 416.9L495.0 417.1L491.4 418.4L487.3 419.7L483.1 420.7L479.8 421.3L478.9 421.5L474.8 422.1L470.6 422.5L466.4 422.7L462.3 422.6L458.1 422.4L454.0 421.9L450.2 421.3L449.8 421.2L445.6 420.4L441.5 419.3L437.3 418.0L435.1 417.1L433.1 416.4L429.0 414.6L425.7 413.0L424.8 412.5L420.6 410.2L418.4 408.8L416.5 407.6L412.3 404.6L412.3 404.6L408.1 401.4L407.0 400.5L404.0 397.9L402.2 396.3L399.8 394.0L397.9 392.1L395.6 389.9L393.8 387.9L391.5 385.5L389.8 383.8L387.3 381.0L385.9 379.6L383.2 376.6L382.0 375.4L379.0 372.3L377.9 371.3L374.8 368.4L373.3 367.1L370.7 364.9L368.0 362.9L366.5 361.8L362.3 359.3L361.3 358.7L358.2 357.2L354.0 355.5L351.0 354.6L349.8 354.2L345.7 353.2L341.5 352.5L337.3 352.1L333.2 351.9L329.0 352.0L324.8 352.4L320.7 353.1L316.5 354.2L315.3 354.6L312.4 355.7L308.2 357.6L306.2 358.7L304.0 360.1L300.0 362.9L299.9 363.0L295.7 366.5L295.0 367.1L291.5 370.2L290.4 371.3L287.4 374.2L286.1 375.4L283.2 378.1L281.7 379.6L279.0 382.0L277.1 383.8L274.9 385.7L272.2 387.9L270.7 389.2L266.8 392.1L266.5 392.3L262.4 395.2L260.6 396.3L258.2 397.7L254.0 400.0L253.0 400.5L249.9 401.9L245.7 403.6L242.9 404.6L241.6 405.1L237.4 406.3L233.2 407.2L229.1 407.9L224.9 408.4L220.7 408.6L216.6 408.6L212.4 408.4L208.2 407.9L204.1 407.2L199.9 406.3L195.7 405.0L194.6 404.6L191.6 403.6L187.4 401.8L184.7 400.5L183.2 399.7L179.1 397.3L177.5 396.3L174.9 394.5L171.7 392.1L170.8 391.4L166.8 387.9L166.6 387.8L162.5 383.8L162.4 383.7L158.7 379.6L158.3 379.1L155.3 375.4L154.1 373.8L152.2 371.3L149.9 367.9L149.4 367.1L146.7 362.9L145.8 361.5L144.1 358.7L141.6 354.7L141.5 354.6L139.0 350.4L137.4 347.9L136.3 346.2L133.4 342.1L133.3 341.9L130.1 337.9L129.1 336.8L126.1 333.7L124.9 332.7L120.9 329.5L120.8 329.5L116.6 326.9L113.5 325.4L112.4 324.9L108.3 323.2L104.1 321.7L102.8 321.2L100.0 320.3L95.8 319.0L91.6 317.7L89.6 317.0L87.5 316.3L83.3 314.9L79.1 313.3L78.1 312.9L75.0 311.6L70.8 309.6L69.1 308.7L66.6 307.3L62.5 304.8L62.1 304.5L58.3 301.9L56.4 300.3L54.1 298.5L51.6 296.2L50.0 294.5L47.6 292.0L45.8 289.8L44.3 287.8L41.6 284.0L41.4 283.7L39.0 279.5L37.5 276.3L37.0 275.3L35.4 271.1L34.0 267.0L33.3 264.0L33.0 262.8L32.3 258.6L31.9 254.5L31.8 250.3L31.9 246.1L32.4 241.9L33.1 237.8L33.3 236.8L34.1 233.6L35.4 229.4L37.1 225.3L37.5 224.5L39.1 221.1L41.6 216.9L41.6 216.8L44.5 212.7L45.8 211.0L47.9 208.6L50.0 206.3L51.9 204.4L54.1 202.4L56.8 200.2L58.3 199.1L62.5 196.2L62.7 196.1L66.6 193.7L70.1 191.9L70.8 191.5L75.0 189.6L79.1 188.0L79.9 187.7L83.3 186.5L87.5 185.2L91.6 184.0L93.5 183.5L95.8 182.9L100.0 181.8L104.1 180.8L108.3 179.7L109.3 179.4L112.4 178.4L116.6 176.9L120.4 175.2L120.8 175.0L124.9 172.7L127.3 171.0L129.1 169.7L132.3 166.9L133.3 165.9L136.2 162.7L137.4 161.2L139.4 158.5L141.6 155.5L142.4 154.3L145.2 150.2L145.8 149.3L147.9 146.0L149.9 142.9L150.6 141.8L153.5 137.7L154.1 136.8L156.4 133.5L158.3 131.1L159.6 129.3L162.4 126.0L163.1 125.1L166.6 121.4L167.0 121.0L170.8 117.3L171.3 116.8L174.9 113.7L176.2 112.6L179.1 110.5L182.0 108.5L183.2 107.6L187.4 105.1L189.0 104.3L191.6 102.9L195.7 101.0L198.0 100.1L199.9 99.3L204.1 97.9L208.2 96.6L211.0 95.9L212.4 95.6L216.6 94.6L220.7 93.9L224.9 93.2L229.1 92.6L233.2 92.1L236.4 91.8L237.4 91.7L241.6 91.1L245.7 90.5L249.9 89.8L254.0 88.8L258.1 87.6L258.2 87.6L262.4 85.8L266.3 83.4L266.5 83.3L270.7 79.8L271.2 79.3L274.9 75.2L274.9 75.1L278.0 70.9L279.0 69.5L280.8 66.7L283.2 63.1L283.5 62.6L286.3 58.4L287.4 56.8L289.2 54.2L291.5 51.0L292.3 50.1L295.7 45.9L295.7 45.9L299.7 41.7L299.9 41.5L304.0 37.7L304.3 37.5L308.2 34.5L309.9 33.4L312.4 31.8L316.5 29.5L317.3 29.2L320.7 27.7L324.8 26.2L329.0 25.1Z" fill="#bdcada" fill-rule="evenodd" stroke="#8598b3" stroke-width="0.6" stroke-opacity="0.55"/><path d="M325.5 37.5L329.0 36.4L333.2 35.4L337.3 34.8L341.5 34.6L345.7 34.8L349.8 35.5L354.0 36.5L357.0 37.5L358.2 38.0L362.3 39.9L365.4 41.7L366.5 42.4L370.7 45.6L371.0 45.9L374.8 49.5L375.3 50.1L378.9 54.2L379.0 54.4L381.8 58.4L383.2 60.7L384.3 62.6L386.4 66.7L387.3 68.8L388.3 70.9L389.9 75.1L391.4 79.3L391.5 79.5L392.8 83.4L394.2 87.6L395.6 91.7L395.7 91.8L397.6 95.9L399.8 99.5L400.4 100.1L404.0 102.9L408.1 104.3L408.2 104.3L412.3 104.6L416.5 104.5L418.1 104.3L420.6 104.0L424.8 103.4L429.0 102.7L433.1 102.0L437.3 101.3L441.5 100.6L445.1 100.1L445.6 100.0L449.8 99.5L454.0 99.1L458.1 98.9L462.3 98.7L466.4 98.8L470.6 98.9L474.8 99.3L478.9 99.9L480.3 100.1L483.1 100.6L487.3 101.6L491.4 102.8L495.6 104.2L495.8 104.3L499.8 105.9L503.9 107.8L505.1 108.5L508.1 110.1L512.3 112.6L512.3 112.6L516.4 115.4L518.3 116.8L520.6 118.6L523.5 121.0L524.8 122.1L528.2 125.1L528.9 125.9L532.5 129.3L533.1 129.9L536.6 133.5L537.2 134.1L540.7 137.7L541.4 138.4L544.8 141.8L545.6 142.7L549.0 146.0L549.7 146.7L553.7 150.2L553.9 150.3L558.1 153.6L559.1 154.3L562.2 156.5L565.5 158.5L566.4 159.0L570.6 161.3L573.5 162.7L574.7 163.3L578.9 165.0L583.1 166.7L583.4 166.9L587.2 168.3L591.4 169.9L594.4 171.0L595.6 171.4L599.7 173.0L603.9 174.7L604.9 175.2L608.0 176.5L612.2 178.5L613.9 179.4L616.4 180.6L620.5 182.9L621.6 183.5L624.7 185.5L628.0 187.7L628.9 188.3L633.0 191.5L633.5 191.9L637.2 195.1L638.2 196.1L641.4 199.1L642.4 200.2L645.5 203.8L646.0 204.4L649.2 208.6L649.7 209.3L652.0 212.7L653.9 215.9L654.5 216.9L656.6 221.1L658.0 224.3L658.4 225.3L660.0 229.4L661.3 233.6L662.2 237.0L662.4 237.8L663.2 241.9L663.9 246.1L664.2 250.3L664.4 254.5L664.3 258.6L664.1 262.8L663.6 267.0L662.8 271.1L662.2 274.0L661.9 275.3L660.7 279.5L659.3 283.7L658.0 286.7L657.5 287.8L655.6 292.0L653.9 295.1L653.3 296.2L650.6 300.3L649.7 301.7L647.6 304.5L645.5 307.1L644.2 308.7L641.4 311.8L640.3 312.9L637.2 315.8L635.8 317.0L633.0 319.3L630.6 321.2L628.9 322.5L624.7 325.3L624.5 325.4L620.5 327.8L617.3 329.5L616.4 330.0L612.2 332.1L608.6 333.7L608.0 334.0L603.9 335.7L599.7 337.3L597.9 337.9L595.6 338.8L591.4 340.2L587.2 341.6L585.8 342.1L583.1 343.0L578.9 344.5L574.7 346.1L574.3 346.2L570.6 347.8L566.4 349.8L565.2 350.4L562.2 352.1L558.2 354.6L558.1 354.7L553.9 357.8L552.7 358.7L549.7 361.3L548.0 362.9L545.6 365.3L543.8 367.1L541.4 369.6L539.9 371.3L537.2 374.1L536.1 375.4L533.1 378.7L532.3 379.6L528.9 383.1L528.3 383.8L524.8 387.3L524.1 387.9L520.6 391.2L519.5 392.1L516.4 394.7L514.4 396.3L512.3 397.9L508.6 400.5L508.1 400.8L503.9 403.3L501.5 404.6L499.8 405.5L495.6 407.5L492.2 408.8L491.4 409.1L487.3 410.5L483.1 411.7L478.9 412.5L476.0 413.0L474.8 413.2L470.6 413.6L466.4 413.8L462.3 413.7L458.1 413.4L454.8 413.0L454.0 412.9L449.8 412.1L445.6 411.1L441.5 409.8L438.7 408.8L437.3 408.3L433.1 406.5L429.4 404.6L429.0 404.4L424.8 402.0L422.4 400.5L420.6 399.3L416.6 396.3L416.5 396.2L412.3 392.7L411.6 392.1L408.1 388.9L407.2 387.9L404.0 384.7L403.1 383.8L399.8 380.1L399.3 379.6L395.7 375.4L395.6 375.3L392.2 371.3L391.5 370.3L388.7 367.1L387.3 365.4L385.0 362.9L383.2 360.8L381.1 358.7L379.0 356.7L376.5 354.6L374.8 353.1L371.0 350.4L370.7 350.1L366.5 347.7L363.5 346.2L362.3 345.7L358.2 344.1L354.0 342.8L351.2 342.1L349.8 341.7L345.7 340.9L341.5 340.3L337.3 339.9L333.2 339.6L329.0 339.5L324.8 339.6L320.7 339.9L316.5 340.5L312.4 341.4L310.2 342.1L308.2 342.7L304.0 344.5L301.0 346.2L299.9 346.9L295.7 349.9L295.1 350.4L291.5 353.5L290.4 354.6L287.4 357.6L286.3 358.7L283.2 362.1L282.5 362.9L279.0 366.7L278.7 367.1L274.9 371.1L274.7 371.3L270.7 375.3L270.6 375.4L266.5 379.2L266.1 379.6L262.4 382.6L260.9 383.8L258.2 385.8L254.9 387.9L254.0 388.5L249.9 390.9L247.4 392.1L245.7 392.9L241.6 394.6L237.4 396.1L236.6 396.3L233.2 397.2L229.1 398.1L224.9 398.6L220.7 399.0L216.6 399.0L212.4 398.8L208.2 398.3L204.1 397.5L199.9 396.4L199.5 396.3L195.7 395.0L191.6 393.4L189.0 392.1L187.4 391.3L183.2 388.9L181.8 387.9L179.1 386.1L176.1 383.8L174.9 382.8L171.5 379.6L170.8 378.9L167.5 375.4L166.6 374.4L164.0 371.3L162.4 369.2L160.9 367.1L158.3 363.2L158.1 362.9L155.6 358.7L154.1 356.1L153.2 354.6L151.0 350.4L149.9 348.2L148.9 346.2L146.8 342.1L145.8 339.8L144.7 337.9L142.5 333.7L141.6 332.2L139.9 329.5L137.4 326.0L136.9 325.4L133.3 321.4L133.0 321.2L129.1 318.1L127.3 317.0L124.9 315.8L120.8 314.0L117.1 312.9L116.6 312.7L112.4 311.6L108.3 310.7L104.1 309.8L100.0 308.9L99.2 308.7L95.8 307.9L91.6 306.9L87.5 305.7L83.9 304.5L83.3 304.3L79.1 302.7L75.0 300.9L73.9 300.3L70.8 298.7L66.6 296.2L66.6 296.2L62.5 293.2L61.1 292.0L58.3 289.6L56.5 287.8L54.1 285.2L52.8 283.7L50.0 279.7L49.8 279.5L47.3 275.3L45.8 272.2L45.3 271.1L43.7 267.0L42.5 262.8L41.7 258.6L41.6 258.5L41.2 254.5L41.0 250.3L41.2 246.1L41.6 242.4L41.7 241.9L42.6 237.8L43.8 233.6L45.4 229.4L45.8 228.5L47.4 225.3L49.9 221.1L50.0 221.0L53.0 216.9L54.1 215.6L56.8 212.7L58.3 211.3L61.4 208.6L62.5 207.7L66.6 204.8L67.2 204.4L70.8 202.3L74.9 200.2L75.0 200.2L79.1 198.4L83.3 196.9L86.1 196.1L87.5 195.6L91.6 194.6L95.8 193.7L100.0 192.9L104.1 192.2L106.2 191.9L108.3 191.5L112.4 190.9L116.6 190.1L120.8 189.2L124.9 188.1L125.9 187.7L129.1 186.5L133.3 184.2L134.2 183.5L137.4 181.0L139.1 179.4L141.6 176.6L142.6 175.2L145.5 171.0L145.8 170.6L148.0 166.9L149.9 163.4L150.3 162.7L152.5 158.5L154.1 155.7L154.8 154.3L157.1 150.2L158.3 148.2L159.5 146.0L162.2 141.8L162.4 141.4L165.0 137.7L166.6 135.5L168.2 133.5L170.8 130.4L171.7 129.3L174.9 125.9L175.7 125.1L179.1 122.1L180.4 121.0L183.2 118.7L186.0 116.8L187.4 115.8L191.6 113.3L192.9 112.6L195.7 111.1L199.9 109.3L202.1 108.5L204.1 107.7L208.2 106.4L212.4 105.3L216.6 104.4L217.6 104.3L220.7 103.8L224.9 103.2L229.1 102.9L233.2 102.7L237.4 102.5L241.6 102.5L245.7 102.5L249.9 102.6L254.0 102.6L258.2 102.6L262.4 102.4L266.5 101.9L270.7 101.1L273.5 100.1L274.9 99.5L279.0 96.8L279.9 95.9L283.2 91.9L283.3 91.8L285.7 87.6L287.4 84.3L287.7 83.4L289.6 79.3L291.4 75.1L291.5 74.9L293.3 70.9L295.4 66.7L295.7 66.2L297.7 62.6L299.9 59.2L300.3 58.4L303.4 54.2L304.0 53.5L307.0 50.1L308.2 48.9L311.4 45.9L312.4 45.1L316.5 42.1L317.1 41.7L320.7 39.7L324.8 37.8Z" fill="#c3cedd" fill-rule="evenodd" stroke="#8598b3" stroke-width="0.6" stroke-opacity="0.55"/><path d="M326.6 50.1L329.0 48.9L333.2 47.6L337.3 46.8L341.5 46.6L345.7 46.9L349.8 47.8L354.0 49.3L355.7 50.1L358.2 51.5L362.1 54.2L362.3 54.4L366.4 58.4L366.5 58.6L369.5 62.6L370.7 64.6L371.9 66.7L373.6 70.9L374.8 74.7L374.9 75.1L375.8 79.3L376.1 83.4L376.1 87.6L375.5 91.8L374.8 94.5L374.4 95.9L372.5 100.1L370.7 102.9L369.6 104.3L366.5 107.4L365.2 108.5L362.3 110.4L358.2 112.6L358.1 112.6L354.0 114.2L349.8 115.4L345.7 116.2L341.5 116.6L337.4 116.8L337.3 116.8L337.2 116.8L333.2 116.7L329.0 116.2L324.8 115.4L320.7 114.1L317.3 112.6L316.5 112.3L312.4 109.5L311.2 108.5L308.2 104.8L307.9 104.3L305.9 100.1L304.8 95.9L304.3 91.8L304.3 87.6L304.6 83.4L305.3 79.3L306.4 75.1L307.9 70.9L308.2 70.3L309.9 66.7L312.4 62.6L312.4 62.6L315.7 58.4L316.5 57.5L320.1 54.2L320.7 53.7L324.8 51.0ZM454.0 108.5L458.1 107.9L462.3 107.6L466.4 107.5L470.6 107.6L474.8 107.9L478.9 108.5L478.9 108.5L483.1 109.2L487.3 110.3L491.4 111.6L494.2 112.6L495.6 113.2L499.8 115.0L503.2 116.8L503.9 117.2L508.1 119.7L509.9 121.0L512.3 122.6L515.5 125.1L516.4 125.9L520.4 129.3L520.6 129.5L524.8 133.4L524.8 133.5L528.9 137.7L528.9 137.7L532.8 141.8L533.1 142.1L536.6 146.0L537.2 146.7L540.6 150.2L541.4 151.1L544.8 154.3L545.6 155.1L549.4 158.5L549.7 158.8L553.9 161.9L555.0 162.7L558.1 164.6L562.0 166.9L562.2 167.0L566.4 169.0L570.6 170.8L571.2 171.0L574.7 172.3L578.9 173.8L583.0 175.2L583.1 175.2L587.2 176.6L591.4 178.0L595.3 179.4L595.6 179.5L599.7 181.0L603.9 182.7L605.9 183.5L608.0 184.5L612.2 186.5L614.5 187.7L616.4 188.7L620.5 191.2L621.5 191.9L624.7 194.0L627.4 196.1L628.9 197.2L632.4 200.2L633.0 200.8L636.7 204.4L637.2 204.9L640.4 208.6L641.4 209.7L643.6 212.7L645.5 215.5L646.4 216.9L648.8 221.1L649.7 222.8L650.9 225.3L652.7 229.4L653.9 232.9L654.1 233.6L655.3 237.8L656.2 241.9L656.9 246.1L657.3 250.3L657.5 254.5L657.4 258.6L657.1 262.8L656.6 267.0L655.8 271.1L654.7 275.3L653.9 278.0L653.4 279.5L651.8 283.7L649.9 287.8L649.7 288.2L647.6 292.0L645.5 295.4L645.0 296.2L642.0 300.3L641.4 301.2L638.6 304.5L637.2 306.0L634.5 308.7L633.0 310.1L629.8 312.9L628.9 313.7L624.7 316.8L624.3 317.0L620.5 319.5L617.7 321.2L616.4 322.0L612.2 324.1L609.6 325.4L608.0 326.1L603.9 327.8L599.7 329.4L599.3 329.5L595.6 330.9L591.4 332.2L587.2 333.4L586.3 333.7L583.1 334.7L578.9 335.9L574.7 337.2L572.5 337.9L570.6 338.5L566.4 340.1L562.2 341.8L561.7 342.1L558.1 343.9L554.0 346.2L553.9 346.3L549.7 349.3L548.3 350.4L545.6 352.7L543.6 354.6L541.4 356.8L539.6 358.7L537.2 361.3L535.8 362.9L533.1 366.1L532.2 367.1L528.9 371.0L528.7 371.3L525.0 375.4L524.8 375.7L521.1 379.6L520.6 380.1L516.9 383.8L516.4 384.2L512.3 387.8L512.1 387.9L508.1 391.1L506.7 392.1L503.9 394.0L500.2 396.3L499.8 396.5L495.6 398.7L491.6 400.5L491.4 400.6L487.3 402.1L483.1 403.4L478.9 404.3L477.2 404.6L474.8 405.0L470.6 405.5L466.4 405.7L462.3 405.6L458.1 405.2L454.1 404.6L454.0 404.6L449.8 403.7L445.6 402.6L441.5 401.1L439.9 400.5L437.3 399.4L433.1 397.3L431.4 396.3L429.0 394.8L424.9 392.1L424.8 392.0L420.6 388.8L419.6 387.9L416.5 385.2L415.0 383.8L412.3 381.1L410.9 379.6L408.1 376.5L407.2 375.4L404.0 371.4L403.8 371.3L400.6 367.1L399.8 366.0L397.4 362.9L395.6 360.5L394.3 358.7L391.5 355.1L391.1 354.6L387.6 350.4L387.3 350.1L383.6 346.2L383.2 345.8L379.0 342.3L378.7 342.1L374.8 339.4L372.1 337.9L370.7 337.1L366.5 335.3L362.3 333.8L361.9 333.7L358.2 332.7L354.0 331.7L349.8 330.9L345.7 330.2L341.5 329.7L340.5 329.5L337.3 329.2L333.2 328.8L329.0 328.5L324.8 328.3L320.7 328.2L316.5 328.3L312.4 328.6L308.2 329.1L306.3 329.5L304.0 330.1L299.9 331.5L295.7 333.5L295.4 333.7L291.5 336.4L289.8 337.9L287.4 340.1L285.5 342.1L283.2 344.6L281.9 346.2L279.0 349.8L278.6 350.4L275.4 354.6L274.9 355.2L272.1 358.7L270.7 360.5L268.7 362.9L266.5 365.4L265.0 367.1L262.4 369.8L260.9 371.3L258.2 373.7L256.1 375.4L254.0 377.0L250.5 379.6L249.9 380.0L245.7 382.5L243.2 383.8L241.6 384.6L237.4 386.3L233.2 387.6L232.0 387.9L229.1 388.7L224.9 389.4L220.7 389.8L216.6 389.8L212.4 389.6L208.2 389.1L204.1 388.2L203.2 387.9L199.9 387.0L195.7 385.4L192.4 383.8L191.6 383.4L187.4 380.9L185.4 379.6L183.2 378.0L180.1 375.4L179.1 374.5L175.8 371.3L174.9 370.3L172.1 367.1L170.8 365.3L169.0 362.9L166.6 359.1L166.3 358.7L164.0 354.6L162.4 351.5L161.9 350.4L160.0 346.2L158.3 342.1L158.3 341.8L156.8 337.9L155.4 333.7L154.1 329.7L154.0 329.5L152.7 325.4L151.3 321.2L149.9 317.2L149.8 317.0L148.0 312.9L145.8 308.7L145.7 308.7L142.0 304.5L141.6 304.2L137.4 301.8L133.3 300.6L132.1 300.3L129.1 299.9L124.9 299.5L120.8 299.2L116.6 299.1L112.4 298.9L108.3 298.6L104.1 298.3L100.0 297.8L95.8 297.1L91.6 296.3L91.2 296.2L87.5 295.2L83.3 293.8L79.1 292.1L79.0 292.0L75.0 290.0L71.5 287.8L70.8 287.4L66.6 284.2L66.0 283.7L62.5 280.3L61.8 279.5L58.4 275.3L58.3 275.1L55.9 271.1L54.1 267.6L53.8 267.0L52.4 262.8L51.3 258.6L50.7 254.5L50.5 250.3L50.7 246.1L51.4 241.9L52.4 237.8L53.9 233.6L54.1 233.1L56.0 229.4L58.3 225.7L58.6 225.3L62.0 221.1L62.5 220.6L66.3 216.9L66.6 216.6L70.8 213.5L72.0 212.7L75.0 211.0L79.1 208.9L80.1 208.6L83.3 207.3L87.5 206.0L91.6 205.0L94.8 204.4L95.8 204.2L100.0 203.7L104.1 203.3L108.3 203.1L112.4 203.1L116.6 203.1L120.8 203.2L124.9 203.3L129.1 203.3L133.3 203.0L137.4 202.5L141.6 201.2L143.3 200.2L145.8 198.5L148.0 196.1L149.9 193.4L150.7 191.9L152.7 187.7L154.1 184.3L154.4 183.5L155.8 179.4L157.3 175.2L158.3 172.5L158.8 171.0L160.3 166.9L161.9 162.7L162.4 161.5L163.7 158.5L165.6 154.3L166.6 152.5L167.8 150.2L170.2 146.0L170.8 145.2L173.0 141.8L174.9 139.2L176.1 137.7L179.1 134.2L179.8 133.5L183.2 130.0L184.1 129.3L187.4 126.5L189.3 125.1L191.6 123.5L195.7 121.0L195.8 121.0L199.9 118.9L204.1 117.1L204.9 116.8L208.2 115.7L212.4 114.5L216.6 113.6L220.7 113.0L224.7 112.6L224.9 112.6L229.1 112.4L233.2 112.4L236.8 112.6L237.4 112.7L241.6 113.1L245.7 113.6L249.9 114.4L254.0 115.3L258.2 116.4L259.7 116.8L262.4 117.7L266.5 119.2L270.6 121.0L270.7 121.0L274.9 123.2L277.8 125.1L279.0 126.1L282.7 129.3L283.2 129.9L286.2 133.5L287.4 135.2L288.9 137.7L291.1 141.8L291.5 142.6L293.3 146.0L295.3 150.2L295.7 150.9L297.6 154.3L299.9 158.2L300.0 158.5L303.2 162.7L304.0 163.6L307.5 166.9L308.2 167.4L312.4 170.1L314.3 171.0L316.5 171.9L320.7 173.2L324.8 174.0L329.0 174.6L333.2 175.0L336.3 175.2L337.3 175.2L341.5 175.3L345.7 175.3L348.6 175.2L349.8 175.2L354.0 174.9L358.2 174.4L362.3 173.8L366.5 173.0L370.7 171.8L372.7 171.0L374.8 170.1L379.0 167.8L380.4 166.9L383.2 164.6L385.2 162.7L387.3 160.3L388.7 158.5L391.5 154.7L391.7 154.3L394.3 150.2L395.6 147.9L396.8 146.0L399.3 141.8L399.8 141.1L402.0 137.7L404.0 135.0L405.1 133.5L408.1 130.0L408.8 129.3L412.3 126.1L413.4 125.1L416.5 122.8L419.2 121.0L420.6 120.1L424.8 117.8L426.7 116.8L429.0 115.8L433.1 114.0L436.9 112.6L437.3 112.5L441.5 111.2L445.6 110.1L449.8 109.2L454.0 108.5Z" fill="#c8d2e0" fill-rule="evenodd" stroke="#8598b3" stroke-width="0.6" stroke-opacity="0.55"/><path d="M331.3 66.7L333.2 65.5L337.3 63.8L341.5 63.4L345.7 64.2L349.8 66.2L350.5 66.7L354.0 70.5L354.3 70.9L356.0 75.1L356.5 79.3L356.0 83.4L354.2 87.6L354.0 87.9L350.1 91.8L349.8 92.0L345.7 93.9L341.5 94.8L337.3 94.6L333.2 93.4L330.4 91.8L329.0 90.6L326.6 87.6L324.9 83.4L324.8 83.3L324.6 79.3L324.8 77.6L325.4 75.1L327.4 70.9L329.0 68.9ZM457.2 116.8L458.1 116.6L462.3 116.1L466.4 115.9L470.6 115.9L474.8 116.1L478.9 116.7L479.5 116.8L483.1 117.5L487.3 118.7L491.4 120.1L493.5 121.0L495.6 121.9L499.8 124.0L501.7 125.1L503.9 126.5L508.0 129.3L508.1 129.4L512.3 132.7L513.1 133.5L516.4 136.5L517.6 137.7L520.6 140.7L521.7 141.8L524.8 145.2L525.5 146.0L528.9 150.0L529.1 150.2L532.7 154.3L533.1 154.8L536.4 158.5L537.2 159.4L540.5 162.7L541.4 163.5L545.2 166.9L545.6 167.1L549.7 170.1L551.2 171.0L553.9 172.6L558.1 174.7L559.2 175.2L562.2 176.4L566.4 178.0L570.6 179.3L570.7 179.4L574.7 180.5L578.9 181.7L583.1 182.9L585.1 183.5L587.2 184.1L591.4 185.4L595.6 186.8L598.0 187.7L599.7 188.3L603.9 190.0L608.0 191.9L608.0 191.9L612.2 194.0L615.7 196.1L616.4 196.4L620.5 199.2L622.0 200.2L624.7 202.3L627.2 204.4L628.9 205.9L631.6 208.6L633.0 210.1L635.4 212.7L637.2 215.0L638.6 216.9L641.3 221.1L641.4 221.2L643.7 225.3L645.5 229.2L645.6 229.4L647.2 233.6L648.6 237.8L649.6 241.9L649.7 242.7L650.3 246.1L650.8 250.3L651.0 254.5L650.9 258.6L650.6 262.8L650.0 267.0L649.7 268.2L649.1 271.1L647.9 275.3L646.4 279.5L645.5 281.6L644.6 283.7L642.5 287.8L641.4 289.7L640.0 292.0L637.2 295.9L637.0 296.2L633.5 300.3L633.0 300.8L629.4 304.5L628.9 305.0L624.7 308.6L624.5 308.7L620.5 311.6L618.7 312.9L616.4 314.3L612.2 316.6L611.5 317.0L608.0 318.7L603.9 320.5L602.1 321.2L599.7 322.1L595.6 323.6L591.4 324.8L589.5 325.4L587.2 326.0L583.1 327.1L578.9 328.1L574.7 329.1L573.0 329.5L570.6 330.2L566.4 331.3L562.2 332.6L559.0 333.7L558.1 334.0L553.9 335.8L550.0 337.9L549.7 338.0L545.6 340.8L544.0 342.1L541.4 344.2L539.3 346.2L537.2 348.3L535.4 350.4L533.1 353.0L531.8 354.6L528.9 358.2L528.5 358.7L525.2 362.9L524.8 363.5L521.9 367.1L520.6 368.6L518.3 371.3L516.4 373.3L514.5 375.4L512.3 377.6L510.2 379.6L508.1 381.4L505.2 383.8L503.9 384.8L499.8 387.7L499.3 387.9L495.6 390.2L491.8 392.1L491.4 392.3L487.3 394.0L483.1 395.4L479.9 396.3L478.9 396.5L474.8 397.3L470.6 397.8L466.4 398.0L462.3 397.9L458.1 397.5L454.0 396.8L452.0 396.3L449.8 395.7L445.6 394.4L441.5 392.7L440.2 392.1L437.3 390.7L433.1 388.3L432.7 387.9L429.0 385.4L426.9 383.8L424.8 382.0L422.1 379.6L420.6 378.2L418.0 375.4L416.5 373.7L414.4 371.3L412.3 368.7L411.1 367.1L408.1 363.0L408.1 362.9L405.3 358.7L404.0 356.7L402.5 354.6L399.8 350.4L399.8 350.3L397.0 346.2L395.6 344.2L394.0 342.1L391.5 338.8L390.6 337.9L387.3 334.5L386.4 333.7L383.2 331.1L380.7 329.5L379.0 328.5L374.8 326.6L371.5 325.4L370.7 325.1L366.5 323.9L362.3 323.0L358.2 322.2L354.0 321.5L351.6 321.2L349.8 320.9L345.7 320.4L341.5 319.9L337.3 319.4L333.2 318.8L329.0 318.3L324.8 317.8L320.7 317.3L317.9 317.0L316.5 316.9L312.4 316.5L308.2 316.2L304.0 316.1L299.9 316.2L295.7 316.7L294.2 317.0L291.5 317.7L287.4 319.6L285.2 321.2L283.2 322.8L280.9 325.4L279.0 327.7L277.8 329.5L275.2 333.7L274.9 334.2L272.8 337.9L270.7 341.4L270.4 342.1L267.9 346.2L266.5 348.4L265.3 350.4L262.4 354.6L262.4 354.7L259.2 358.7L258.2 360.0L255.6 362.9L254.0 364.5L251.3 367.1L249.9 368.3L246.0 371.3L245.7 371.5L241.6 374.1L239.0 375.4L237.4 376.2L233.2 377.9L229.1 379.2L227.2 379.6L224.9 380.1L220.7 380.6L216.6 380.7L212.4 380.4L208.2 379.8L207.5 379.6L204.1 378.7L199.9 377.2L195.9 375.4L195.7 375.3L191.6 372.9L189.3 371.3L187.4 369.8L184.4 367.1L183.2 366.0L180.5 362.9L179.1 361.1L177.3 358.7L174.9 355.0L174.7 354.6L172.5 350.4L170.8 346.5L170.6 346.2L169.1 342.1L167.9 337.9L167.0 333.7L166.6 331.5L166.3 329.5L165.8 325.4L165.6 321.2L165.7 317.0L166.1 312.9L166.6 310.5L167.0 308.7L168.3 304.5L170.4 300.3L170.8 299.8L173.4 296.2L174.9 294.6L177.9 292.0L179.1 291.1L183.2 288.3L184.1 287.8L187.4 286.1L191.6 284.2L192.9 283.7L195.7 282.5L199.9 281.0L204.1 279.8L205.3 279.5L208.2 278.7L212.4 277.7L216.6 276.8L220.7 276.1L224.9 275.5L226.2 275.3L229.1 274.8L233.2 274.2L237.4 273.4L241.6 272.3L245.0 271.1L245.7 270.8L249.9 268.0L251.0 267.0L253.6 262.8L254.0 261.6L254.8 258.6L255.0 254.5L254.5 250.3L254.0 249.1L252.8 246.1L249.9 242.2L249.6 241.9L245.7 239.2L243.1 237.8L241.6 237.1L237.4 235.8L233.2 234.6L229.5 233.6L229.1 233.5L224.9 232.6L220.7 231.6L216.6 230.4L213.3 229.4L212.4 229.2L208.2 227.9L204.1 226.4L201.2 225.3L199.9 224.7L195.7 222.9L192.1 221.1L191.6 220.8L187.4 218.5L185.0 216.9L183.2 215.7L179.6 212.7L179.1 212.2L175.7 208.6L174.9 207.5L172.9 204.4L171.0 200.2L170.8 199.5L169.7 196.1L169.0 191.9L168.7 187.7L168.6 183.5L168.9 179.4L169.5 175.2L170.3 171.0L170.8 169.1L171.3 166.9L172.6 162.7L174.2 158.5L174.9 156.8L176.0 154.3L178.3 150.2L179.1 148.9L180.9 146.0L183.2 142.9L184.1 141.8L187.4 138.2L187.9 137.7L191.6 134.4L192.7 133.5L195.7 131.2L198.8 129.3L199.9 128.7L204.1 126.6L207.7 125.1L208.2 124.9L212.4 123.7L216.6 122.7L220.7 122.1L224.9 121.8L229.1 121.8L233.2 122.1L237.4 122.6L241.6 123.4L245.7 124.6L247.4 125.1L249.9 126.0L254.0 127.9L256.7 129.3L258.2 130.2L262.4 133.1L262.9 133.5L266.5 136.7L267.5 137.7L270.7 141.3L271.2 141.8L274.1 146.0L274.9 147.2L276.6 150.2L278.8 154.3L279.0 154.7L280.9 158.5L282.8 162.7L283.2 163.5L284.9 166.9L287.0 171.0L287.4 171.8L289.5 175.2L291.5 178.2L292.6 179.4L295.7 182.4L297.3 183.5L299.9 185.1L304.0 186.7L307.9 187.7L308.2 187.8L312.4 188.3L316.5 188.6L320.7 188.8L324.8 188.8L329.0 188.7L333.2 188.6L337.3 188.5L341.5 188.4L345.7 188.3L349.8 188.2L354.0 188.1L358.2 188.0L362.3 187.8L364.1 187.7L366.5 187.6L370.7 187.2L374.8 186.6L379.0 185.8L383.2 184.5L385.5 183.5L387.3 182.7L391.5 179.9L392.1 179.4L395.6 175.8L396.2 175.2L399.2 171.0L399.8 170.1L401.7 166.9L404.0 162.8L404.0 162.7L406.2 158.5L408.1 154.9L408.4 154.3L410.7 150.2L412.3 147.5L413.2 146.0L416.1 141.8L416.5 141.3L419.3 137.7L420.6 136.2L423.3 133.5L424.8 132.1L428.1 129.3L429.0 128.7L433.1 125.8L434.2 125.1L437.3 123.4L441.5 121.4L442.6 121.0L445.6 119.8L449.8 118.5L454.0 117.4ZM88.5 216.9L91.6 216.1L95.8 215.5L100.0 215.2L104.1 215.2L108.3 215.6L112.4 216.2L115.5 216.9L116.6 217.2L120.8 218.7L124.9 220.5L126.0 221.1L129.1 223.1L131.9 225.3L133.3 226.7L135.7 229.4L137.4 232.3L138.2 233.6L139.8 237.8L140.9 241.9L141.4 246.1L141.6 249.5L141.6 250.3L141.6 251.7L141.5 254.5L141.1 258.6L140.2 262.8L138.8 267.0L137.4 269.7L136.7 271.1L133.4 275.3L133.3 275.5L129.1 279.0L128.4 279.5L124.9 281.4L120.8 283.2L119.4 283.7L116.6 284.5L112.4 285.4L108.3 285.9L104.1 286.2L100.0 286.1L95.8 285.7L91.6 285.0L87.5 283.9L86.8 283.7L83.3 282.3L79.1 280.2L77.9 279.5L75.0 277.4L72.4 275.3L70.8 273.8L68.5 271.1L66.6 268.6L65.6 267.0L63.5 262.8L62.5 259.9L62.1 258.6L61.3 254.5L61.0 250.3L61.3 246.1L62.1 241.9L62.5 240.9L63.6 237.8L65.7 233.6L66.6 232.2L68.7 229.4L70.8 227.1L72.7 225.3L75.0 223.5L78.5 221.1L79.1 220.7L83.3 218.7L87.5 217.2Z" fill="#cdd7e3" fill-rule="evenodd" stroke="#8598b3" stroke-width="0.6" stroke-opacity="0.55"/><path d="M459.2 125.1L462.3 124.6L466.4 124.2L470.6 124.1L474.8 124.4L478.9 124.9L479.8 125.1L483.1 125.9L487.3 127.1L491.4 128.8L492.6 129.3L495.6 130.8L499.8 133.3L500.0 133.5L503.9 136.3L505.7 137.7L508.1 139.7L510.4 141.8L512.3 143.7L514.5 146.0L516.4 148.2L518.1 150.2L520.6 153.2L521.5 154.3L524.8 158.4L524.8 158.5L528.1 162.7L528.9 163.7L531.6 166.9L533.1 168.5L535.5 171.0L537.2 172.7L540.2 175.2L541.4 176.1L545.6 178.8L546.5 179.4L549.7 181.0L553.9 182.7L556.3 183.5L558.1 184.1L562.2 185.3L566.4 186.3L570.6 187.3L572.5 187.7L574.7 188.2L578.9 189.1L583.1 190.1L587.2 191.2L589.5 191.9L591.4 192.4L595.6 193.8L599.7 195.3L601.5 196.1L603.9 197.1L608.0 199.0L610.2 200.2L612.2 201.3L616.4 204.0L617.0 204.4L620.5 207.0L622.4 208.6L624.7 210.6L626.9 212.7L628.9 214.8L630.7 216.9L633.0 220.0L633.8 221.1L636.5 225.3L637.2 226.6L638.7 229.4L640.5 233.6L641.4 235.9L642.0 237.8L643.1 241.9L644.0 246.1L644.5 250.3L644.7 254.5L644.6 258.6L644.2 262.8L643.6 267.0L642.6 271.1L641.4 275.1L641.3 275.3L639.6 279.5L637.6 283.7L637.2 284.4L635.2 287.8L633.0 290.9L632.2 292.0L628.9 296.1L628.8 296.2L624.7 300.3L624.6 300.3L620.5 303.8L619.6 304.5L616.4 306.8L613.4 308.7L612.2 309.4L608.0 311.6L605.4 312.9L603.9 313.5L599.7 315.2L595.6 316.7L594.3 317.0L591.4 317.9L587.2 319.0L583.1 320.0L578.9 320.8L576.8 321.2L574.7 321.6L570.6 322.4L566.4 323.1L562.2 323.9L558.1 324.9L556.1 325.4L553.9 326.0L549.7 327.4L545.6 329.2L545.0 329.5L541.4 331.7L538.6 333.7L537.2 334.8L534.1 337.9L533.1 338.9L530.4 342.1L528.9 343.9L527.2 346.2L524.8 349.7L524.3 350.4L521.3 354.6L520.6 355.6L518.4 358.7L516.4 361.3L515.2 362.9L512.3 366.5L511.8 367.1L508.1 371.2L508.0 371.3L503.9 375.1L503.6 375.4L499.8 378.6L498.3 379.6L495.6 381.5L491.7 383.8L491.4 383.9L487.3 385.9L483.1 387.6L481.8 387.9L478.9 388.8L474.8 389.7L470.6 390.2L466.4 390.4L462.3 390.3L458.1 389.8L454.0 389.0L450.3 387.9L449.8 387.8L445.6 386.2L441.5 384.3L440.6 383.8L437.3 381.8L434.1 379.6L433.1 378.9L429.0 375.4L429.0 375.4L424.8 371.3L424.8 371.3L421.2 367.1L420.6 366.4L418.1 362.9L416.5 360.5L415.3 358.7L412.7 354.6L412.3 353.8L410.4 350.4L408.2 346.2L408.1 346.1L406.1 342.1L404.0 338.0L403.9 337.9L401.6 333.7L399.8 330.6L399.1 329.5L396.0 325.4L395.6 324.9L391.8 321.2L391.5 320.9L387.3 318.2L384.8 317.0L383.2 316.3L379.0 315.1L374.8 314.2L370.7 313.5L366.5 313.0L365.0 312.9L362.3 312.6L358.2 312.2L354.0 311.8L349.8 311.4L345.7 311.0L341.5 310.4L337.3 309.9L333.2 309.2L330.4 308.7L329.0 308.4L324.8 307.6L320.7 306.6L316.5 305.5L312.9 304.5L312.4 304.3L308.2 303.0L304.0 301.5L301.0 300.3L299.9 299.8L295.7 297.8L292.7 296.2L291.5 295.4L287.4 292.1L287.2 292.0L283.9 287.8L283.2 286.6L281.8 283.7L280.6 279.5L279.8 275.3L279.3 271.1L279.0 268.0L278.9 267.0L278.7 262.8L278.5 258.6L278.4 254.5L278.3 250.3L278.2 246.1L278.2 241.9L278.1 237.8L278.1 233.6L278.1 229.4L278.2 225.3L278.4 221.1L279.0 216.9L279.0 216.9L281.0 212.7L283.2 211.4L287.4 209.5L289.9 208.6L291.5 208.1L295.7 207.0L299.9 205.9L304.0 204.9L305.9 204.4L308.2 203.9L312.4 203.0L316.5 202.2L320.7 201.5L324.8 200.9L329.0 200.3L329.9 200.2L333.2 199.9L337.3 199.5L341.5 199.3L345.7 199.1L349.8 199.0L354.0 199.1L358.2 199.2L362.3 199.3L366.5 199.5L370.7 199.8L374.8 200.1L378.1 200.2L379.0 200.3L383.2 200.4L387.3 200.4L389.6 200.2L391.5 200.1L395.6 199.2L399.8 197.5L401.8 196.1L404.0 194.0L405.5 191.9L407.9 187.7L408.1 187.3L409.7 183.5L411.3 179.4L412.3 176.5L412.7 175.2L414.2 171.0L415.7 166.9L416.5 165.0L417.4 162.7L419.2 158.5L420.6 155.6L421.3 154.3L423.7 150.2L424.8 148.4L426.5 146.0L429.0 142.9L429.8 141.8L433.1 138.5L434.0 137.7L437.3 134.9L439.3 133.5L441.5 132.1L445.6 129.7L446.5 129.3L449.8 127.9L454.0 126.4L458.1 125.3ZM212.1 133.5L212.4 133.4L216.6 132.4L220.7 131.7L224.9 131.5L229.1 131.6L233.2 132.2L237.4 133.1L238.7 133.5L241.6 134.5L245.7 136.4L248.0 137.7L249.9 138.8L253.9 141.8L254.0 142.0L258.1 146.0L258.2 146.1L261.3 150.2L262.4 151.8L264.0 154.3L266.1 158.5L266.5 159.5L267.9 162.7L269.4 166.9L270.6 171.0L270.7 171.5L271.6 175.2L272.5 179.4L273.2 183.5L273.8 187.7L274.3 191.9L274.6 196.1L274.7 200.2L274.3 204.4L272.6 208.6L270.7 209.9L266.5 211.8L263.5 212.7L262.4 213.0L258.2 214.0L254.0 214.8L249.9 215.5L245.7 216.0L241.6 216.4L237.4 216.6L233.2 216.6L229.1 216.4L224.9 216.1L220.7 215.5L216.6 214.7L212.4 213.6L209.9 212.7L208.2 212.2L204.1 210.4L200.5 208.6L199.9 208.3L195.7 205.5L194.3 204.4L191.6 202.0L189.8 200.2L187.4 197.3L186.6 196.1L184.2 191.9L183.2 189.4L182.6 187.7L181.6 183.5L181.1 179.4L181.1 175.2L181.4 171.0L182.2 166.9L183.2 162.9L183.3 162.7L184.9 158.5L186.9 154.3L187.4 153.5L189.6 150.2L191.6 147.5L192.9 146.0L195.7 143.1L197.1 141.8L199.9 139.7L202.9 137.7L204.1 137.0L208.2 134.9ZM84.0 233.6L87.5 231.7L91.6 230.2L95.8 229.5L100.0 229.5L104.1 230.3L108.3 231.7L111.7 233.6L112.4 234.2L116.2 237.8L116.6 238.3L118.8 241.9L120.3 246.1L120.8 250.3L120.4 254.5L119.2 258.6L116.9 262.8L116.6 263.1L112.8 267.0L112.4 267.2L108.3 269.5L104.1 271.0L103.2 271.1L100.0 271.6L95.8 271.5L93.4 271.1L91.6 270.8L87.5 269.3L83.4 267.0L83.3 266.9L79.1 262.9L79.0 262.8L76.6 258.6L75.1 254.5L75.0 253.2L74.7 250.3L75.0 247.7L75.2 246.1L76.7 241.9L79.1 238.0L79.3 237.8L83.3 234.1ZM436.3 237.8L437.3 237.4L441.5 236.6L445.6 236.6L449.8 237.0L454.0 237.8L454.0 237.8L458.1 239.0L462.3 240.6L465.3 241.9L466.4 242.6L470.6 245.7L471.1 246.1L473.8 250.3L474.4 254.5L472.8 258.6L470.6 260.8L468.1 262.8L466.4 263.6L462.3 265.1L458.1 266.1L454.0 266.7L449.8 266.9L445.6 266.5L441.5 265.5L437.3 263.6L436.1 262.8L433.1 259.7L432.4 258.6L430.6 254.5L429.9 250.3L430.1 246.1L431.6 241.9L433.1 240.0ZM203.1 296.2L204.1 295.8L208.2 294.6L212.4 293.6L216.6 293.0L220.7 292.6L224.9 292.6L229.1 292.7L233.2 293.1L237.4 293.8L241.6 294.7L245.7 296.0L246.2 296.2L249.9 297.7L254.0 300.0L254.5 300.3L258.2 303.7L258.9 304.5L261.2 308.7L262.3 312.9L262.4 313.5L262.7 317.0L262.6 321.2L262.4 322.6L262.1 325.4L261.2 329.5L260.1 333.7L258.7 337.9L258.2 339.0L256.9 342.1L254.8 346.2L254.0 347.5L252.3 350.4L249.9 353.7L249.2 354.6L245.7 358.4L245.4 358.7L241.6 362.1L240.5 362.9L237.4 365.0L233.5 367.1L233.2 367.2L229.1 368.9L224.9 370.0L220.7 370.6L216.6 370.8L212.4 370.5L208.2 369.7L204.1 368.3L201.2 367.1L199.9 366.4L195.7 363.9L194.5 362.9L191.6 360.4L189.9 358.7L187.4 355.8L186.5 354.6L183.8 350.4L183.2 349.3L181.8 346.2L180.3 342.1L179.2 337.9L179.1 337.3L178.5 333.7L178.3 329.5L178.5 325.4L179.1 321.5L179.1 321.2L180.4 317.0L182.2 312.9L183.2 311.2L185.0 308.7L187.4 305.9L188.9 304.5L191.6 302.3L194.4 300.3L195.7 299.6L199.9 297.5Z" fill="#d3dbe6" fill-rule="evenodd" stroke="#8598b3" stroke-width="0.6" stroke-opacity="0.55"/><path d="M463.0 133.5L466.4 133.0L470.6 132.8L474.8 133.0L477.8 133.5L478.9 133.7L483.1 134.7L487.3 136.2L490.4 137.7L491.4 138.1L495.6 140.6L497.3 141.8L499.8 143.7L502.5 146.0L503.9 147.4L506.7 150.2L508.1 151.8L510.3 154.3L512.3 156.9L513.5 158.5L516.4 162.7L516.4 162.7L519.2 166.9L520.6 169.0L522.0 171.0L524.8 175.0L524.9 175.2L528.3 179.4L528.9 180.1L532.5 183.5L533.1 184.0L537.2 186.9L538.7 187.7L541.4 189.0L545.6 190.5L549.7 191.6L551.2 191.9L553.9 192.4L558.1 193.1L562.2 193.7L566.4 194.3L570.6 194.9L574.7 195.6L577.6 196.1L578.9 196.3L583.1 197.1L587.2 198.1L591.4 199.2L594.5 200.2L595.6 200.6L599.7 202.1L603.9 204.0L604.7 204.4L608.0 206.1L612.1 208.6L612.2 208.7L616.4 211.6L617.7 212.7L620.5 215.2L622.3 216.9L624.7 219.5L626.1 221.1L628.9 224.8L629.2 225.3L631.7 229.4L633.0 232.0L633.8 233.6L635.5 237.8L636.7 241.9L637.2 244.0L637.7 246.1L638.2 250.3L638.5 254.5L638.4 258.6L638.0 262.8L637.2 267.0L637.2 267.1L636.1 271.1L634.6 275.3L633.0 278.9L632.8 279.5L630.4 283.7L628.9 286.0L627.6 287.8L624.7 291.4L624.2 292.0L620.5 295.6L620.0 296.2L616.4 299.1L614.7 300.3L612.2 302.1L608.1 304.5L608.0 304.6L603.9 306.6L599.7 308.4L599.0 308.7L595.6 309.9L591.4 311.2L587.2 312.2L584.1 312.9L583.1 313.1L578.9 313.8L574.7 314.4L570.6 314.9L566.4 315.3L562.2 315.7L558.1 316.1L553.9 316.5L550.0 317.0L549.7 317.1L545.6 317.9L541.4 319.0L537.2 320.7L536.3 321.2L533.1 323.2L530.5 325.4L528.9 326.9L526.7 329.5L524.8 332.1L523.7 333.7L521.2 337.9L520.6 338.8L518.8 342.1L516.4 346.2L516.4 346.2L513.9 350.4L512.3 353.0L511.3 354.6L508.4 358.7L508.1 359.1L505.0 362.9L503.9 364.2L501.2 367.1L499.8 368.5L496.6 371.3L495.6 372.1L491.4 375.1L490.8 375.4L487.3 377.4L483.1 379.4L482.4 379.6L478.9 380.8L474.8 381.8L470.6 382.4L466.4 382.6L462.3 382.5L458.1 381.9L454.0 380.9L450.0 379.6L449.8 379.5L445.6 377.6L441.8 375.4L441.5 375.2L437.3 372.2L436.2 371.3L433.1 368.5L431.8 367.1L429.0 363.9L428.2 362.9L425.2 358.7L424.8 358.1L422.6 354.6L420.6 350.8L420.4 350.4L418.5 346.2L416.8 342.1L416.5 341.0L415.3 337.9L414.0 333.7L412.9 329.5L412.3 327.1L411.8 325.4L410.8 321.2L409.9 317.0L409.0 312.9L408.1 309.3L407.9 308.7L406.3 304.5L404.0 301.3L401.8 300.3L399.8 299.8L395.6 299.6L391.5 299.8L387.3 300.2L386.2 300.3L383.2 300.6L379.0 301.0L374.8 301.4L370.7 301.7L366.5 301.9L362.3 302.1L358.2 302.1L354.0 302.0L349.8 301.8L345.7 301.4L341.5 300.9L338.2 300.3L337.3 300.2L333.2 299.3L329.0 298.2L324.8 296.9L322.8 296.2L320.7 295.3L316.5 293.4L313.9 292.0L312.4 291.0L308.2 288.1L307.8 287.8L304.0 284.3L303.4 283.7L300.3 279.5L299.9 278.8L297.9 275.3L296.3 271.1L295.7 269.2L295.1 267.0L294.3 262.8L293.8 258.6L293.6 254.5L293.7 250.3L294.1 246.1L294.8 241.9L295.7 238.6L295.9 237.8L297.5 233.6L299.7 229.4L299.9 229.2L302.8 225.3L304.0 224.0L307.2 221.1L308.2 220.4L312.4 217.7L313.7 216.9L316.5 215.6L320.7 213.9L324.1 212.7L324.8 212.5L329.0 211.4L333.2 210.6L337.3 210.0L341.5 209.6L345.7 209.3L349.8 209.3L354.0 209.4L358.2 209.8L362.3 210.3L366.5 211.0L370.7 211.9L374.0 212.7L374.8 213.0L379.0 214.4L383.2 216.0L385.1 216.9L387.3 218.1L391.5 220.8L391.9 221.1L395.6 224.5L396.4 225.3L399.4 229.4L399.8 230.2L401.6 233.6L403.1 237.8L404.0 241.1L404.2 241.9L405.1 246.1L405.8 250.3L406.5 254.5L407.0 258.6L407.5 262.8L407.9 267.0L408.1 269.0L408.4 271.1L409.0 275.3L409.8 279.5L410.9 283.7L412.3 286.7L413.5 287.8L416.5 289.4L420.6 289.8L424.8 289.5L429.0 289.0L433.1 288.5L437.3 287.9L437.4 287.8L441.5 287.2L445.6 286.6L449.8 285.9L454.0 285.3L458.1 284.7L462.3 284.2L466.1 283.7L466.4 283.6L470.6 283.0L474.8 282.2L478.9 281.4L483.1 280.3L485.6 279.5L487.3 278.8L491.4 276.6L493.2 275.3L495.6 272.9L496.9 271.1L499.1 267.0L499.8 265.1L500.4 262.8L501.0 258.6L501.2 254.5L500.9 250.3L500.2 246.1L499.8 244.6L498.9 241.9L496.7 237.8L495.6 236.2L493.3 233.6L491.4 232.0L487.7 229.4L487.3 229.2L483.1 227.2L478.9 225.6L478.0 225.3L474.8 224.2L470.6 223.0L466.4 221.8L464.2 221.1L462.3 220.5L458.1 219.2L454.0 217.8L451.5 216.9L449.8 216.2L445.6 214.5L442.2 212.7L441.5 212.3L437.3 209.7L435.8 208.6L433.1 206.1L431.5 204.4L429.0 200.6L428.8 200.2L427.0 196.1L425.9 191.9L425.4 187.7L425.3 183.5L425.5 179.4L426.0 175.2L426.8 171.0L427.9 166.9L429.0 163.7L429.3 162.7L431.1 158.5L433.1 154.7L433.3 154.3L436.1 150.2L437.3 148.7L439.7 146.0L441.5 144.3L444.3 141.8L445.6 140.8L449.8 138.2L450.8 137.7L454.0 136.2L458.1 134.7L462.3 133.6ZM210.3 146.0L212.4 145.0L216.6 143.6L220.7 142.8L224.9 142.6L229.1 143.0L233.2 144.0L237.4 145.6L238.2 146.0L241.6 148.0L244.3 150.2L245.7 151.5L248.3 154.3L249.9 156.5L251.2 158.5L253.2 162.7L254.0 165.0L254.7 166.9L255.5 171.0L255.9 175.2L255.7 179.4L255.0 183.5L254.0 186.2L253.4 187.7L250.8 191.9L249.9 192.9L246.3 196.1L245.7 196.5L241.6 198.7L237.6 200.2L237.4 200.3L233.2 201.2L229.1 201.6L224.9 201.6L220.7 201.2L216.6 200.4L216.1 200.2L212.4 199.0L208.2 197.0L206.7 196.1L204.1 194.2L201.5 191.9L199.9 190.2L198.0 187.7L195.7 183.6L195.7 183.5L194.4 179.4L193.7 175.2L193.7 171.0L194.3 166.9L195.5 162.7L195.7 162.0L197.4 158.5L199.9 154.6L200.1 154.3L204.0 150.2L204.1 150.1L208.2 147.1ZM213.5 308.7L216.6 308.2L220.7 308.0L224.9 308.4L226.3 308.7L229.1 309.4L233.2 311.0L236.4 312.9L237.4 313.6L240.8 317.0L241.6 318.0L243.3 321.2L244.6 325.4L245.1 329.5L244.8 333.7L243.8 337.9L242.3 342.1L241.6 343.4L239.8 346.2L237.4 349.4L236.4 350.4L233.2 353.2L231.3 354.6L229.1 355.9L224.9 357.6L220.7 358.6L218.3 358.7L216.6 358.8L215.7 358.7L212.4 358.4L208.2 357.1L204.1 355.0L203.4 354.6L199.9 351.7L198.6 350.4L195.7 346.6L195.5 346.2L193.5 342.1L192.3 337.9L191.8 333.7L192.1 329.5L193.1 325.4L194.9 321.2L195.7 319.9L198.0 317.0L199.9 315.2L203.0 312.9L204.1 312.2L208.2 310.2L212.4 308.9Z" fill="#d8e0e9" fill-rule="evenodd" stroke="#8598b3" stroke-width="0.6" stroke-opacity="0.55"/><path d="M457.2 146.0L458.1 145.6L462.3 144.0L466.4 143.1L470.6 142.7L474.8 142.9L478.9 143.6L483.1 144.9L485.6 146.0L487.3 146.8L491.4 149.4L492.5 150.2L495.6 152.7L497.3 154.3L499.8 157.1L501.0 158.5L503.9 162.5L504.0 162.7L506.5 166.9L508.1 169.9L508.7 171.0L510.6 175.2L512.3 179.2L512.3 179.4L513.9 183.5L515.5 187.7L516.4 190.3L517.2 191.9L519.4 196.1L520.6 197.8L523.7 200.2L524.8 200.8L528.9 202.0L533.1 202.4L537.2 202.5L541.4 202.5L545.6 202.4L549.7 202.2L553.9 202.1L558.1 202.1L562.2 202.1L566.4 202.2L570.6 202.5L574.7 202.8L578.9 203.3L583.1 204.0L584.9 204.4L587.2 204.9L591.4 206.0L595.6 207.4L598.6 208.6L599.7 209.0L603.9 211.0L606.9 212.7L608.0 213.4L612.2 216.3L613.0 216.9L616.4 219.9L617.6 221.1L620.5 224.2L621.4 225.3L624.4 229.4L624.7 229.9L626.8 233.6L628.8 237.8L628.9 238.0L630.2 241.9L631.3 246.1L631.9 250.3L632.2 254.5L632.1 258.6L631.6 262.8L630.8 267.0L629.5 271.1L628.9 272.8L627.8 275.3L625.6 279.5L624.7 281.0L622.9 283.7L620.5 286.6L619.5 287.8L616.4 290.9L615.2 292.0L612.2 294.4L609.7 296.2L608.0 297.3L603.9 299.6L602.4 300.3L599.7 301.6L595.6 303.1L591.4 304.4L591.1 304.5L587.2 305.5L583.1 306.2L578.9 306.8L574.7 307.2L570.6 307.4L566.4 307.5L562.2 307.4L558.1 307.3L553.9 307.0L549.7 306.7L545.6 306.2L541.4 305.8L537.2 305.3L533.1 304.9L528.9 304.7L524.8 304.7L520.6 305.9L518.2 308.7L516.5 312.9L516.4 312.9L515.3 317.0L514.3 321.2L513.2 325.4L512.3 328.6L512.0 329.5L510.7 333.7L509.3 337.9L508.1 340.8L507.6 342.1L505.6 346.2L503.9 349.4L503.4 350.4L500.7 354.6L499.8 355.8L497.5 358.7L495.6 360.8L493.5 362.9L491.4 364.8L488.4 367.1L487.3 367.9L483.1 370.2L480.8 371.3L478.9 372.0L474.8 373.2L470.6 374.0L466.4 374.2L462.3 374.0L458.1 373.3L454.0 372.1L452.0 371.3L449.8 370.2L445.6 367.8L444.6 367.1L441.5 364.6L439.7 362.9L437.3 360.3L436.0 358.7L433.1 354.8L433.0 354.6L430.7 350.4L429.0 346.5L428.8 346.2L427.4 342.1L426.4 337.9L425.7 333.7L425.4 329.5L425.6 325.4L426.2 321.2L427.5 317.0L429.0 314.2L429.8 312.9L433.1 308.8L433.3 308.7L437.3 305.6L439.0 304.5L441.5 303.2L445.6 301.4L448.6 300.3L449.8 300.0L454.0 298.9L458.1 298.0L462.3 297.3L466.4 296.8L470.6 296.5L474.8 296.3L478.9 296.2L483.1 296.2L487.3 296.3L491.4 296.5L495.6 296.7L499.8 296.9L503.9 297.0L508.1 296.6L509.4 296.2L512.3 294.4L513.6 292.0L514.8 287.8L515.4 283.7L515.8 279.5L516.1 275.3L516.3 271.1L516.4 267.0L516.4 264.4L516.4 262.8L516.5 258.6L516.4 255.6L516.4 254.5L516.3 250.3L516.2 246.1L516.0 241.9L515.7 237.8L515.3 233.6L514.7 229.4L514.0 225.3L512.8 221.1L512.3 219.8L510.4 216.9L508.1 214.7L503.9 212.9L503.2 212.7L499.8 212.1L495.6 211.5L491.4 211.1L487.3 210.7L483.1 210.3L478.9 209.7L474.8 209.0L472.8 208.6L470.6 208.1L466.4 207.0L462.3 205.6L459.3 204.4L458.1 203.9L454.0 201.7L451.7 200.2L449.8 198.8L446.8 196.1L445.6 194.8L443.4 191.9L441.5 188.3L441.2 187.7L439.8 183.5L439.1 179.4L439.0 175.2L439.3 171.0L440.3 166.9L441.5 163.3L441.7 162.7L443.8 158.5L445.6 155.9L446.8 154.3L449.8 151.1L450.9 150.2L454.0 147.9ZM216.0 162.7L216.6 162.3L220.7 160.4L224.9 160.2L229.1 161.5L230.9 162.7L233.2 165.2L234.2 166.9L235.2 171.0L234.6 175.2L233.2 177.8L231.8 179.4L229.1 181.1L224.9 182.1L220.7 181.6L216.6 179.7L216.1 179.4L213.0 175.2L212.4 172.8L212.1 171.0L212.4 169.2L213.0 166.9ZM336.7 221.1L337.3 221.0L341.5 220.3L345.7 220.0L349.8 220.0L354.0 220.3L358.2 220.9L358.9 221.1L362.3 221.9L366.5 223.3L370.7 225.1L371.0 225.3L374.8 227.5L377.4 229.4L379.0 230.8L381.8 233.6L383.2 235.4L384.8 237.8L387.0 241.9L387.3 242.8L388.5 246.1L389.6 250.3L390.2 254.5L390.5 258.6L390.4 262.8L389.8 267.0L388.8 271.1L387.3 274.7L387.0 275.3L384.3 279.5L383.2 280.8L380.0 283.7L379.0 284.3L374.8 286.8L372.4 287.8L370.7 288.5L366.5 289.7L362.3 290.6L358.2 291.2L354.0 291.4L349.8 291.4L345.7 291.1L341.5 290.5L337.3 289.6L333.2 288.4L331.5 287.8L329.0 286.8L324.8 284.7L323.1 283.7L320.7 281.9L317.7 279.5L316.5 278.3L314.0 275.3L312.4 272.9L311.3 271.1L309.4 267.0L308.2 263.0L308.1 262.8L307.4 258.6L307.2 254.5L307.5 250.3L308.2 246.4L308.2 246.1L309.6 241.9L311.6 237.8L312.4 236.6L314.5 233.6L316.5 231.4L318.7 229.4L320.7 227.9L324.8 225.3L324.9 225.3L329.0 223.4L333.2 222.0Z" fill="#dde4ec" fill-rule="evenodd" stroke="#8598b3" stroke-width="0.6" stroke-opacity="0.55"/><path d="M463.6 158.5L466.4 157.2L470.6 156.4L474.8 156.5L478.9 157.5L481.3 158.5L483.1 159.6L487.0 162.7L487.3 162.9L490.3 166.9L491.4 169.0L492.4 171.0L493.6 175.2L493.9 179.4L493.1 183.5L491.4 186.6L490.6 187.7L487.3 190.2L483.1 191.9L483.1 191.9L478.9 192.4L474.8 192.3L472.3 191.9L470.6 191.5L466.4 190.0L462.5 187.7L462.3 187.6L458.2 183.5L458.1 183.4L456.0 179.4L455.0 175.2L455.1 171.0L456.2 166.9L458.1 163.4L458.6 162.7L462.3 159.3ZM552.2 212.7L553.9 212.3L558.1 211.3L562.2 210.7L566.4 210.3L570.6 210.1L574.7 210.2L578.9 210.5L583.1 211.1L587.2 211.9L590.5 212.7L591.4 213.0L595.6 214.4L599.7 216.2L601.0 216.9L603.9 218.5L607.7 221.1L608.0 221.3L612.2 224.8L612.7 225.3L616.4 229.3L616.4 229.4L619.4 233.6L620.5 235.7L621.6 237.8L623.4 241.9L624.6 246.1L624.7 246.7L625.3 250.3L625.6 254.5L625.5 258.6L625.0 262.8L624.7 264.1L624.0 267.0L622.5 271.1L620.5 275.3L620.5 275.3L617.9 279.5L616.4 281.4L614.5 283.7L612.2 285.9L610.0 287.8L608.0 289.4L604.2 292.0L603.9 292.2L599.7 294.4L595.6 296.2L595.5 296.2L591.4 297.5L587.2 298.5L583.1 299.3L578.9 299.7L574.7 299.9L570.6 299.9L566.4 299.5L562.2 299.0L558.1 298.2L553.9 297.1L551.2 296.2L549.7 295.6L545.6 293.6L542.8 292.0L541.4 291.0L537.8 287.8L537.2 287.1L534.6 283.7L533.1 280.7L532.5 279.5L531.0 275.3L529.9 271.1L529.2 267.0L528.9 264.4L528.7 262.8L528.4 258.6L528.3 254.5L528.4 250.3L528.6 246.1L528.9 242.7L529.0 241.9L529.6 237.8L530.6 233.6L532.0 229.4L533.1 227.1L534.0 225.3L537.2 221.1L537.2 221.1L541.4 217.6L542.4 216.9L545.6 215.2L549.7 213.5ZM340.7 233.6L341.5 233.4L345.7 232.9L349.8 232.9L354.0 233.5L354.4 233.6L358.2 234.8L362.3 236.8L363.8 237.8L366.5 239.9L368.5 241.9L370.7 245.0L371.3 246.1L373.0 250.3L373.9 254.5L374.0 258.6L373.2 262.8L371.6 267.0L370.7 268.4L368.6 271.1L366.5 273.0L363.2 275.3L362.3 275.8L358.2 277.4L354.0 278.3L349.8 278.6L345.7 278.4L341.5 277.6L337.3 276.2L335.4 275.3L333.2 274.1L329.3 271.1L329.0 270.9L325.8 267.0L324.8 265.2L323.7 262.8L322.6 258.6L322.3 254.5L322.8 250.3L324.3 246.1L324.8 245.1L326.9 241.9L329.0 239.8L331.4 237.8L333.2 236.6L337.3 234.6ZM453.5 312.9L454.0 312.7L458.1 311.2L462.3 310.3L466.4 309.7L470.6 309.6L474.8 309.8L478.9 310.4L483.1 311.5L486.4 312.9L487.3 313.3L491.4 316.2L492.3 317.0L495.3 321.2L495.6 321.9L496.8 325.4L497.4 329.5L497.3 333.7L496.7 337.9L495.6 341.6L495.5 342.1L493.6 346.2L491.4 350.0L491.2 350.4L487.9 354.6L487.3 355.2L483.2 358.7L483.1 358.8L478.9 361.3L475.1 362.9L474.8 363.0L470.6 364.0L466.4 364.3L462.3 363.9L458.1 363.0L458.0 362.9L454.0 361.1L450.2 358.7L449.8 358.4L445.7 354.6L445.6 354.5L442.7 350.4L441.5 348.1L440.6 346.2L439.2 342.1L438.4 337.9L438.3 333.7L438.9 329.5L440.2 325.4L441.5 323.1L442.6 321.2L445.6 317.9L446.6 317.0L449.8 314.8Z" fill="#e3e8ef" fill-rule="evenodd" stroke="#8598b3" stroke-width="0.6" stroke-opacity="0.55"/><path d="M559.2 221.1L562.2 220.0L566.4 219.0L570.6 218.3L574.7 218.1L578.9 218.1L583.1 218.6L587.2 219.3L591.4 220.5L593.0 221.1L595.6 222.1L599.7 224.2L601.4 225.3L603.9 227.0L606.8 229.4L608.0 230.6L610.8 233.6L612.2 235.6L613.7 237.8L615.8 241.9L616.4 243.5L617.3 246.1L618.2 250.3L618.5 254.5L618.4 258.6L617.8 262.8L616.6 267.0L616.4 267.5L614.7 271.1L612.2 275.3L612.2 275.3L608.8 279.5L608.0 280.2L604.1 283.7L603.9 283.8L599.7 286.5L597.0 287.8L595.6 288.5L591.4 290.0L587.2 291.1L583.1 291.9L581.2 292.0L578.9 292.2L574.7 292.1L573.1 292.0L570.6 291.8L566.4 291.0L562.2 289.8L558.1 288.1L557.4 287.8L553.9 285.8L551.0 283.7L549.7 282.5L546.9 279.5L545.6 277.7L544.0 275.3L542.1 271.1L541.4 269.2L540.7 267.0L539.8 262.8L539.3 258.6L539.1 254.5L539.3 250.3L539.8 246.1L540.7 241.9L541.4 239.7L542.1 237.8L544.1 233.6L545.6 231.4L547.1 229.4L549.7 226.8L551.6 225.3L553.9 223.7L558.1 221.5ZM461.2 329.5L462.3 328.9L466.4 327.8L470.6 328.0L474.4 329.5L474.8 329.8L477.6 333.7L478.3 337.9L477.0 342.1L474.8 345.1L473.4 346.2L470.6 347.6L466.4 348.2L462.3 347.2L460.7 346.2L458.1 343.5L457.2 342.1L456.4 337.9L457.4 333.7L458.1 332.6Z" fill="#e8edf3" fill-rule="evenodd" stroke="#8598b3" stroke-width="0.6" stroke-opacity="0.55"/><path d="M565.7 229.4L566.4 229.1L570.6 227.8L574.7 227.0L578.9 226.8L583.1 227.0L587.2 227.8L591.4 229.1L592.1 229.4L595.6 231.1L599.4 233.6L599.7 233.9L603.8 237.8L603.9 237.9L606.7 241.9L608.0 244.6L608.7 246.1L609.9 250.3L610.4 254.5L610.2 258.6L609.3 262.8L608.0 266.2L607.7 267.0L605.2 271.1L603.9 272.8L601.4 275.3L599.7 276.8L595.7 279.5L595.6 279.6L591.4 281.4L587.2 282.7L583.1 283.4L578.9 283.6L574.7 283.3L570.6 282.4L566.4 280.9L563.6 279.5L562.2 278.7L558.1 275.3L558.1 275.3L554.7 271.1L553.9 269.8L552.5 267.0L551.0 262.8L550.2 258.6L550.0 254.5L550.3 250.3L551.2 246.1L552.8 241.9L553.9 239.9L555.2 237.8L558.1 234.5L559.1 233.6L562.2 231.3Z" fill="#edf1f6" fill-rule="evenodd" stroke="#8598b3" stroke-width="0.6" stroke-opacity="0.55"/><path d="M569.2 241.9L570.6 241.0L574.7 239.0L578.9 238.0L583.1 238.1L587.2 239.1L591.4 241.1L592.5 241.9L595.6 244.8L596.5 246.1L598.6 250.3L599.5 254.5L599.1 258.6L597.6 262.8L595.6 265.8L594.5 267.0L591.4 269.4L588.1 271.1L587.2 271.5L583.1 272.3L578.9 272.3L574.7 271.4L574.1 271.1L570.6 269.2L567.9 267.0L566.4 265.1L564.9 262.8L563.5 258.6L563.1 254.5L563.8 250.3L565.6 246.1L566.4 244.9Z" fill="#f3f6f9" fill-rule="evenodd" stroke="#8598b3" stroke-width="0.6" stroke-opacity="0.55"/><path d="" fill="#f8fafc" fill-rule="evenodd" stroke="#8598b3" stroke-width="0.6" stroke-opacity="0.55"/></g><clipPath id="rf-eon-landscape-surface-clip-eon-36-16"><rect x="36" y="16" width="708" height="438" rx="10"/></clipPath></defs>
<rect x="0.5" y="0.5" width="1199" height="469" rx="14" fill="#ffffff" stroke="#d1d9e0"/>
<g clip-path="url(#rf-eon-landscape-surface-clip-eon-36-16)"><use xlink:href="#rf-eon-landscape-surface-eon" x="36" y="16"/></g>
<rect x="36" y="16" width="708" height="438" rx="10" fill="none" stroke="#d1d9e0" stroke-width="1"/>
<path d="M132.35 266.5 L191.19 300.32 L253.67 350.45" fill="none" stroke="#818b98" stroke-width="1.5" stroke-linejoin="round"/>
<path d="M132.35 266.5 L192.87 235.47 L259.63 186.96" fill="none" stroke="#818b98" stroke-width="1.5" stroke-linejoin="round"/>
<path d="M253.67 350.45 L307.93 312.41 L383.81 271.71" fill="none" stroke="#818b98" stroke-width="1.5" stroke-linejoin="round"/>
<path d="M383.81 271.71 L312.72 226.94 L259.63 186.96" fill="none" stroke="#818b98" stroke-width="1.5" stroke-linejoin="round"/>
<path d="M383.81 271.71 L450.63 231.7 L509.92 189.71" fill="none" stroke="#818b98" stroke-width="1.5" stroke-linejoin="round"/>
<path d="M383.81 271.71 L444.61 310.82 L503.2 354.16" fill="none" stroke="#818b98" stroke-width="1.5" stroke-linejoin="round"/>
<path d="M503.2 354.16 L551.94 316.83 L617.74 271.2" fill="none" stroke="#818b98" stroke-width="1.5" stroke-linejoin="round"/>
<path d="M617.74 271.2 L551.79 223.03 L509.92 189.71" fill="none" stroke="#818b98" stroke-width="1.5" stroke-linejoin="round"/>
<path d="M132.35 266.5 C141.69 272.83 169.63 291.49 188.35 304.43 C207.07 317.36 235.29 337.5 244.67 344.11" fill="none" stroke="#2a78d6" stroke-width="2.25" stroke-linecap="round"/>
<polygon points="244.67,344.11 234.1,343.49 240.53,334.37" fill="#2a78d6"/>
<path d="M253.67 350.45 C263.14 344.82 290.39 328.85 310.52 316.69 C330.65 304.53 363.78 284 374.43 277.46" fill="none" stroke="#2a78d6" stroke-width="2.25" stroke-linecap="round"/>
<polygon points="374.43,277.46 369.68,286.93 363.84,277.41" fill="#2a78d6"/>
<path d="M383.81 271.71 C393.47 278.91 423.41 302.18 441.76 314.94 C460.12 327.69 485.23 342.69 493.93 348.24" fill="none" stroke="#2a78d6" stroke-width="2.25" stroke-linecap="round"/>
<polygon points="493.93,348.24 483.34,348.1 489.34,338.69" fill="#2a78d6"/>
<path d="M503.2 354.16 C511.81 348.61 537.22 333.57 554.87 320.88 C572.53 308.19 600.07 285.17 609.11 278.02" fill="none" stroke="#2a78d6" stroke-width="2.25" stroke-linecap="round"/>
<polygon points="609.11,278.02 605.51,287.98 598.59,279.23" fill="#2a78d6"/>
<path d="M617.74 271.2 C607.26 279.48 572.42 308.05 554.87 320.88 C537.33 333.72 519.52 343.65 512.45 348.2" fill="none" stroke="#2a78d6" stroke-width="2.25" stroke-linecap="round"/>
<polygon points="512.45,348.2 516.99,338.64 523.04,348.02" fill="#2a78d6"/>
<path d="M503.2 354.16 C512.3 349.29 540.08 337.53 557.81 324.93 C575.53 312.33 600.93 286.28 609.55 278.55" fill="none" stroke="#2a78d6" stroke-width="2.25" stroke-linecap="round"/>
<polygon points="609.55,278.55 606.57,288.71 599.12,280.4" fill="#2a78d6"/>
<path d="M617.74 271.2 C606.25 263.84 565.42 239.33 548.77 227.02 C532.13 214.71 523.01 202.28 517.86 197.33" fill="none" stroke="#2a78d6" stroke-width="2.25" stroke-linecap="round"/>
<polygon points="517.86,197.33 528.22,199.54 520.49,207.59" fill="#2a78d6"/>
<path d="M509.92 189.71 C516.4 195.93 532.35 214.43 548.77 227.02 C565.2 239.61 598.53 258.9 608.48 265.27" fill="none" stroke="#2a78d6" stroke-width="2.25" stroke-linecap="round"/>
<polygon points="608.48,265.27 597.89,265.11 603.91,255.72" fill="#2a78d6"/>
<path d="M617.74 271.2 C605.74 264.51 562.53 243.21 545.76 231.01 C528.99 218.81 521.9 203.52 517.13 198.02" fill="none" stroke="#2a78d6" stroke-width="2.25" stroke-linecap="round"/>
<polygon points="517.13,198.02 527.25,201.16 518.82,208.48" fill="#2a78d6"/>
<path d="M509.92 189.71 C515.9 196.6 529.39 218.32 545.76 231.01 C562.13 243.7 597.74 260.04 608.14 265.84" fill="none" stroke="#2a78d6" stroke-width="2.25" stroke-linecap="round"/>
<polygon points="608.14,265.84 597.56,266.33 603,256.58" fill="#2a78d6"/>
<path d="M617.74 271.2 C605.24 265.17 559.64 247.1 542.74 235 C525.85 222.9 520.77 204.68 516.38 198.62" fill="none" stroke="#2a78d6" stroke-width="2.25" stroke-linecap="round"/>
<polygon points="516.38,198.62 526.18,202.63 517.14,209.18" fill="#2a78d6"/>
<path d="M509.92 189.71 C515.39 197.26 526.43 222.22 542.74 235 C559.06 247.78 596.99 261.19 607.83 266.42" fill="none" stroke="#2a78d6" stroke-width="2.25" stroke-linecap="round"/>
<polygon points="607.83,266.42 597.3,267.54 602.16,257.48" fill="#2a78d6"/>
<polygon points="191.19,292.84 197.69,305.19 184.69,305.19" fill="#1baf7a" stroke="#ffffff" stroke-width="1.5" stroke-linejoin="round"/>
<polygon points="192.87,228 199.37,240.35 186.37,240.35" fill="#1baf7a" stroke="#ffffff" stroke-width="1.5" stroke-linejoin="round"/>
<polygon points="307.93,304.94 314.43,317.29 301.43,317.29" fill="#1baf7a" stroke="#ffffff" stroke-width="1.5" stroke-linejoin="round"/>
<polygon points="312.72,219.47 319.22,231.82 306.22,231.82" fill="#1baf7a" stroke="#ffffff" stroke-width="1.5" stroke-linejoin="round"/>
<polygon points="450.63,224.23 457.13,236.58 444.13,236.58" fill="#1baf7a" stroke="#ffffff" stroke-width="1.5" stroke-linejoin="round"/>
<polygon points="444.61,303.35 451.11,315.7 438.11,315.7" fill="#1baf7a" stroke="#ffffff" stroke-width="1.5" stroke-linejoin="round"/>
<polygon points="551.94,309.36 558.44,321.71 545.44,321.71" fill="#1baf7a" stroke="#ffffff" stroke-width="1.5" stroke-linejoin="round"/>
<polygon points="551.79,215.56 558.29,227.91 545.29,227.91" fill="#1baf7a" stroke="#ffffff" stroke-width="1.5" stroke-linejoin="round"/>
<path d="M151.38 235 L135.07 262.01" fill="none" stroke="#1f2328" stroke-width="1.5" stroke-linecap="round" stroke-linejoin="round"/>
<polygon points="132.35,266.5 132.26,258.27 139.69,262.76" fill="#1f2328"/>
<polygon points="151.38,229 157.38,235 151.38,241 145.38,235" fill="#ffffff" stroke="#1f2328" stroke-width="1.75" stroke-linejoin="round"/>
<text x="141.38" y="221" font-size="20" font-weight="600" text-anchor="end" fill="none" stroke="#e9ecf1" stroke-width="4" stroke-linejoin="round">start</text>
<text x="141.38" y="221" font-size="20" font-weight="600" text-anchor="end" fill="#1f2328">start</text>
<circle cx="132.35" cy="266.5" r="7.5" fill="#ffffff"/>
<circle cx="132.35" cy="266.5" r="5.5" fill="#1f2328"/>
<text x="132.35" y="292.5" font-size="20" font-weight="700" text-anchor="middle" fill="none" stroke="#e9ecf1" stroke-width="4" stroke-linejoin="round">0</text>
<text x="132.35" y="292.5" font-size="20" font-weight="700" text-anchor="middle" fill="#1f2328">0</text>
<circle cx="253.67" cy="350.45" r="7.5" fill="#ffffff"/>
<circle cx="253.67" cy="350.45" r="5.5" fill="#1f2328"/>
<text x="253.67" y="376.45" font-size="20" font-weight="700" text-anchor="middle" fill="none" stroke="#e9ecf1" stroke-width="4" stroke-linejoin="round">1</text>
<text x="253.67" y="376.45" font-size="20" font-weight="700" text-anchor="middle" fill="#1f2328">1</text>
<circle cx="259.63" cy="186.96" r="7.5" fill="#ffffff"/>
<circle cx="259.63" cy="186.96" r="5.5" fill="#1f2328"/>
<text x="259.63" y="212.96" font-size="20" font-weight="700" text-anchor="middle" fill="none" stroke="#e9ecf1" stroke-width="4" stroke-linejoin="round">2</text>
<text x="259.63" y="212.96" font-size="20" font-weight="700" text-anchor="middle" fill="#1f2328">2</text>
<circle cx="383.81" cy="271.71" r="7.5" fill="#ffffff"/>
<circle cx="383.81" cy="271.71" r="5.5" fill="#1f2328"/>
<text x="383.81" y="297.71" font-size="20" font-weight="700" text-anchor="middle" fill="none" stroke="#e9ecf1" stroke-width="4" stroke-linejoin="round">3</text>
<text x="383.81" y="297.71" font-size="20" font-weight="700" text-anchor="middle" fill="#1f2328">3</text>
<circle cx="509.92" cy="189.71" r="7.5" fill="#ffffff"/>
<circle cx="509.92" cy="189.71" r="5.5" fill="#1f2328"/>
<text x="509.92" y="215.71" font-size="20" font-weight="700" text-anchor="middle" fill="none" stroke="#e9ecf1" stroke-width="4" stroke-linejoin="round">4</text>
<text x="509.92" y="215.71" font-size="20" font-weight="700" text-anchor="middle" fill="#1f2328">4</text>
<circle cx="503.2" cy="354.16" r="7.5" fill="#ffffff"/>
<circle cx="503.2" cy="354.16" r="5.5" fill="#1f2328"/>
<text x="503.2" y="380.16" font-size="20" font-weight="700" text-anchor="middle" fill="none" stroke="#e9ecf1" stroke-width="4" stroke-linejoin="round">5</text>
<text x="503.2" y="380.16" font-size="20" font-weight="700" text-anchor="middle" fill="#1f2328">5</text>
<circle cx="617.74" cy="271.2" r="7.5" fill="#ffffff"/>
<circle cx="617.74" cy="271.2" r="5.5" fill="#1f2328"/>
<text x="617.74" y="297.2" font-size="20" font-weight="700" text-anchor="middle" fill="none" stroke="#e9ecf1" stroke-width="4" stroke-linejoin="round">6</text>
<text x="617.74" y="297.2" font-size="20" font-weight="700" text-anchor="middle" fill="#1f2328">6</text>
<circle cx="70" cy="362" r="5.5" fill="#1f2328"/>
<text x="90" y="369.1" font-size="20" fill="none" stroke="#e9ecf1" stroke-width="4" stroke-linejoin="round">state</text>
<text x="90" y="369.1" font-size="20" fill="#1f2328">state</text>
<polygon points="70,384.52 76.5,396.88 63.5,396.88" fill="#1baf7a" stroke="#ffffff" stroke-width="1.5" stroke-linejoin="round"/>
<text x="90" y="399.1" font-size="20" fill="none" stroke="#e9ecf1" stroke-width="4" stroke-linejoin="round">saddle</text>
<text x="90" y="399.1" font-size="20" fill="#1f2328">saddle</text>
<path d="M60 422 L74 422" fill="none" stroke="#2a78d6" stroke-width="2.25" stroke-linecap="round" stroke-linejoin="round"/>
<polygon points="80,422 72,426.96 72,417.04" fill="#2a78d6"/>
<text x="90" y="429.1" font-size="20" fill="none" stroke="#e9ecf1" stroke-width="4" stroke-linejoin="round">KMC step</text>
<text x="90" y="429.1" font-size="20" fill="#1f2328">KMC step</text>
<line x1="868" y1="83.45" x2="1160" y2="83.45" fill="none" stroke="#e7ebef" stroke-width="1"/>
<text x="858" y="90.55" font-size="20" text-anchor="end" fill="#59636e">0</text>
<line x1="868" y1="202.07" x2="1160" y2="202.07" fill="none" stroke="#e7ebef" stroke-width="1"/>
<text x="858" y="209.17" font-size="20" text-anchor="end" fill="#59636e">-0.5</text>
<line x1="868" y1="320.69" x2="1160" y2="320.69" fill="none" stroke="#e7ebef" stroke-width="1"/>
<text x="858" y="327.79" font-size="20" text-anchor="end" fill="#59636e">-1.0</text>
<line x1="868" y1="380" x2="1160" y2="380" fill="none" stroke="#c0c8d1" stroke-width="1"/>
<line x1="868" y1="380" x2="868" y2="386" fill="none" stroke="#c0c8d1" stroke-width="1"/>
<line x1="897.2" y1="380" x2="897.2" y2="386" fill="none" stroke="#c0c8d1" stroke-width="1"/>
<line x1="926.4" y1="380" x2="926.4" y2="386" fill="none" stroke="#c0c8d1" stroke-width="1"/>
<text x="926.4" y="410" font-size="20" text-anchor="middle" fill="#59636e">1 µs</text>
<line x1="955.6" y1="380" x2="955.6" y2="386" fill="none" stroke="#c0c8d1" stroke-width="1"/>
<line x1="984.8" y1="380" x2="984.8" y2="386" fill="none" stroke="#c0c8d1" stroke-width="1"/>
<line x1="1014" y1="380" x2="1014" y2="386" fill="none" stroke="#c0c8d1" stroke-width="1"/>
<text x="1014" y="410" font-size="20" text-anchor="middle" fill="#59636e">1 ms</text>
<line x1="1043.2" y1="380" x2="1043.2" y2="386" fill="none" stroke="#c0c8d1" stroke-width="1"/>
<line x1="1072.4" y1="380" x2="1072.4" y2="386" fill="none" stroke="#c0c8d1" stroke-width="1"/>
<line x1="1101.6" y1="380" x2="1101.6" y2="386" fill="none" stroke="#c0c8d1" stroke-width="1"/>
<text x="1101.6" y="410" font-size="20" text-anchor="middle" fill="#59636e">1 s</text>
<line x1="1130.8" y1="380" x2="1130.8" y2="386" fill="none" stroke="#c0c8d1" stroke-width="1"/>
<line x1="1160" y1="380" x2="1160" y2="386" fill="none" stroke="#c0c8d1" stroke-width="1"/>
<text x="1160" y="444" font-size="20" text-anchor="end" fill="#59636e">simulated time</text>
<text x="810" y="208" font-size="20" text-anchor="middle" fill="#59636e" transform="rotate(-90 810 208)">E − E(0) (eV)</text>
<path d="M868 83.45 L913.08 83.45 L913.08 143.42 L925.79 143.42 L925.79 233.43 L962.72 233.43 L962.72 252.5 L964.27 252.5 L964.27 368.54 L1140.5 368.54 L1140.5 252.5 L1140.5 252.5 L1140.5 368.54 L1148.25 368.54 L1148.25 219.16 L1148.25 219.16 L1148.25 368.54 L1151.32 368.54 L1151.32 219.16 L1151.32 219.16 L1151.32 368.54 L1159.47 368.54 L1159.47 219.16 L1159.47 219.16 L1159.47 368.54 L1160 368.54" fill="none" stroke="#2a78d6" stroke-width="2.25" stroke-linejoin="round"/>
</svg>
